<svg width="18" height="18" viewBox="0 0 18 18" fill="none" xmlns="http://www.w3.org/2000/svg">
<path fill-rule="evenodd" clip-rule="evenodd" d="M9 7.93934L12.9697 3.96967C13.2626 3.67678 13.7374 3.67678 14.0303 3.96967C14.3232 4.26256 14.3232 4.73744 14.0303 5.03033L10.0607 9L14.0303 12.9697C14.3232 13.2626 14.3232 13.7374 14.0303 14.0303C13.7374 14.3232 13.2626 14.3232 12.9697 14.0303L9 10.0607L5.03033 14.0303C4.73744 14.3232 4.26256 14.3232 3.96967 14.0303C3.67678 13.7374 3.67678 13.2626 3.96967 12.9697L7.93934 9L3.96967 5.03033C3.67678 4.73744 3.67678 4.26256 3.96967 3.96967C4.26256 3.67678 4.73744 3.67678 5.03033 3.96967L9 7.93934Z" fill="black"/>
<mask id="mask0_624_8256" style="mask-type:alpha" maskUnits="userSpaceOnUse" x="3" y="3" width="12" height="12">
<path fill-rule="evenodd" clip-rule="evenodd" d="M9 7.93934L12.9697 3.96967C13.2626 3.67678 13.7374 3.67678 14.0303 3.96967C14.3232 4.26256 14.3232 4.73744 14.0303 5.03033L10.0607 9L14.0303 12.9697C14.3232 13.2626 14.3232 13.7374 14.0303 14.0303C13.7374 14.3232 13.2626 14.3232 12.9697 14.0303L9 10.0607L5.03033 14.0303C4.73744 14.3232 4.26256 14.3232 3.96967 14.0303C3.67678 13.7374 3.67678 13.2626 3.96967 12.9697L7.93934 9L3.96967 5.03033C3.67678 4.73744 3.67678 4.26256 3.96967 3.96967C4.26256 3.67678 4.73744 3.67678 5.03033 3.96967L9 7.93934Z" fill="white"/>
</mask>
<g mask="url(#mask0_624_8256)">
<rect width="18" height="18" fill="white"/>
</g>
</svg>
