<svg width="18" height="18" viewBox="0 0 18 18" fill="none" xmlns="http://www.w3.org/2000/svg">
<path fill-rule="evenodd" clip-rule="evenodd" d="M9.96967 14.0303C9.67678 13.7374 9.67678 13.2626 9.96967 12.9697L13.1893 9.75H3C2.58579 9.75 2.25 9.41421 2.25 9C2.25 8.58579 2.58579 8.25 3 8.25H13.1893L9.96967 5.03033C9.67678 4.73744 9.67678 4.26256 9.96967 3.96967C10.2626 3.67678 10.7374 3.67678 11.0303 3.96967L15.5297 8.46907M15.5297 9.53093L11.0303 14.0303C10.7374 14.3232 10.2626 14.3232 9.96967 14.0303M15.5297 9.53093C15.5316 9.5291 15.5334 9.52726 15.5352 9.52541C15.6047 9.45465 15.6573 9.37354 15.6931 9.28709C15.7298 9.19866 15.75 9.10169 15.75 9C15.75 8.89831 15.7298 8.80134 15.6931 8.71291C15.6573 8.62646 15.6047 8.54535 15.5352 8.47459" fill="black"/>
<mask id="mask0_624_7501" style="mask-type:alpha" maskUnits="userSpaceOnUse" x="2" y="3" width="14" height="12">
<path fill-rule="evenodd" clip-rule="evenodd" d="M9.96967 14.0303C9.67678 13.7374 9.67678 13.2626 9.96967 12.9697L13.1893 9.75H3C2.58579 9.75 2.25 9.41421 2.25 9C2.25 8.58579 2.58579 8.25 3 8.25H13.1893L9.96967 5.03033C9.67678 4.73744 9.67678 4.26256 9.96967 3.96967C10.2626 3.67678 10.7374 3.67678 11.0303 3.96967L15.5297 8.46907M15.5297 9.53093L11.0303 14.0303C10.7374 14.3232 10.2626 14.3232 9.96967 14.0303M15.5297 9.53093C15.5316 9.5291 15.5334 9.52726 15.5352 9.52541C15.6047 9.45465 15.6573 9.37354 15.6931 9.28709C15.7298 9.19866 15.75 9.10169 15.75 9C15.75 8.89831 15.7298 8.80134 15.6931 8.71291C15.6573 8.62646 15.6047 8.54535 15.5352 8.47459" fill="white"/>
</mask>
<g mask="url(#mask0_624_7501)">
<rect width="18" height="18" fill="#795DE3"/>
</g>
</svg>
