<svg width="7" height="7" viewBox="0 0 7 7" fill="none" xmlns="http://www.w3.org/2000/svg">
<path fill-rule="evenodd" clip-rule="evenodd" d="M3.4999 6.70827C1.72797 6.70827 0.291531 5.27183 0.291531 3.4999C0.291531 1.72797 1.72797 0.291531 3.4999 0.291531C5.27184 0.291531 6.70828 1.72797 6.70828 3.4999C6.70828 5.27183 5.27184 6.70827 3.4999 6.70827ZM3.4999 6.12493C4.94967 6.12493 6.12494 4.94966 6.12494 3.4999C6.12494 2.05014 4.94967 0.874871 3.4999 0.874871C2.05014 0.874871 0.874872 2.05014 0.874872 3.4999C0.874872 4.94966 2.05014 6.12493 3.4999 6.12493ZM3.4999 1.45821C3.66099 1.45821 3.79157 1.5888 3.79157 1.74988V3.37909L4.58116 4.16867C4.69506 4.28257 4.69506 4.46725 4.58116 4.58115C4.46725 4.69505 4.28258 4.69505 4.16867 4.58115L3.29366 3.70614C3.23896 3.65144 3.20823 3.57726 3.20823 3.4999V1.74988C3.20823 1.5888 3.33882 1.45821 3.4999 1.45821Z" fill="black"/>
<mask id="mask0_624_6850" style="mask-type:alpha" maskUnits="userSpaceOnUse" x="0" y="0" width="7" height="7">
<path fill-rule="evenodd" clip-rule="evenodd" d="M3.4999 6.70827C1.72797 6.70827 0.291531 5.27183 0.291531 3.4999C0.291531 1.72797 1.72797 0.291531 3.4999 0.291531C5.27184 0.291531 6.70828 1.72797 6.70828 3.4999C6.70828 5.27183 5.27184 6.70827 3.4999 6.70827ZM3.4999 6.12493C4.94967 6.12493 6.12494 4.94966 6.12494 3.4999C6.12494 2.05014 4.94967 0.874871 3.4999 0.874871C2.05014 0.874871 0.874872 2.05014 0.874872 3.4999C0.874872 4.94966 2.05014 6.12493 3.4999 6.12493ZM3.4999 1.45821C3.66099 1.45821 3.79157 1.5888 3.79157 1.74988V3.37909L4.58116 4.16867C4.69506 4.28257 4.69506 4.46725 4.58116 4.58115C4.46725 4.69505 4.28258 4.69505 4.16867 4.58115L3.29366 3.70614C3.23896 3.65144 3.20823 3.57726 3.20823 3.4999V1.74988C3.20823 1.5888 3.33882 1.45821 3.4999 1.45821Z" fill="white"/>
</mask>
<g mask="url(#mask0_624_6850)">
<rect width="7.00008" height="7.00008" fill="#795DE3"/>
</g>
</svg>
