<svg width="18" height="18" viewBox="0 0 18 18" fill="none" xmlns="http://www.w3.org/2000/svg">
<path fill-rule="evenodd" clip-rule="evenodd" d="M7.875 14.25C4.35418 14.25 1.5 11.3958 1.5 7.875C1.5 4.35418 4.35418 1.5 7.875 1.5C11.3958 1.5 14.25 4.35418 14.25 7.875C14.25 9.36516 13.7387 10.7359 12.882 11.8214L16.2803 15.2197C16.5732 15.5126 16.5732 15.9874 16.2803 16.2803C15.9874 16.5732 15.5126 16.5732 15.2197 16.2803L11.8214 12.882C10.7359 13.7387 9.36515 14.25 7.875 14.25ZM11.3699 11.2738C11.3526 11.2882 11.3359 11.3035 11.3197 11.3197C11.3035 11.3359 11.2882 11.3526 11.2737 11.3699C10.3956 12.224 9.19674 12.75 7.875 12.75C5.18261 12.75 3 10.5674 3 7.875C3 5.18261 5.18261 3 7.875 3C10.5674 3 12.75 5.18261 12.75 7.875C12.75 9.19675 12.224 10.3956 11.3699 11.2738Z" fill="black"/>
<mask id="mask0_624_9212" style="mask-type:alpha" maskUnits="userSpaceOnUse" x="1" y="1" width="16" height="16">
<path fill-rule="evenodd" clip-rule="evenodd" d="M7.875 14.25C4.35418 14.25 1.5 11.3958 1.5 7.875C1.5 4.35418 4.35418 1.5 7.875 1.5C11.3958 1.5 14.25 4.35418 14.25 7.875C14.25 9.36516 13.7387 10.7359 12.882 11.8214L16.2803 15.2197C16.5732 15.5126 16.5732 15.9874 16.2803 16.2803C15.9874 16.5732 15.5126 16.5732 15.2197 16.2803L11.8214 12.882C10.7359 13.7387 9.36515 14.25 7.875 14.25ZM11.3699 11.2738C11.3526 11.2882 11.3359 11.3035 11.3197 11.3197C11.3035 11.3359 11.2882 11.3526 11.2737 11.3699C10.3956 12.224 9.19674 12.75 7.875 12.75C5.18261 12.75 3 10.5674 3 7.875C3 5.18261 5.18261 3 7.875 3C10.5674 3 12.75 5.18261 12.75 7.875C12.75 9.19675 12.224 10.3956 11.3699 11.2738Z" fill="white"/>
</mask>
<g mask="url(#mask0_624_9212)">
<rect width="18" height="18" fill="white"/>
</g>
</svg>
