<svg width="18" height="18" viewBox="0 0 18 18" fill="none" xmlns="http://www.w3.org/2000/svg">
<path fill-rule="evenodd" clip-rule="evenodd" d="M18 4.5V9C18 9.41421 17.6642 9.75 17.25 9.75C16.8358 9.75 16.5 9.41421 16.5 9V6.31066L10.6553 12.1553C10.3624 12.4482 9.88756 12.4482 9.59467 12.1553L6.375 8.93566L1.28033 14.0303C0.987437 14.3232 0.512563 14.3232 0.21967 14.0303C-0.0732233 13.7374 -0.0732233 13.2626 0.21967 12.9697L5.84467 7.34467C6.13756 7.05178 6.61244 7.05178 6.90533 7.34467L10.125 10.5643L15.4393 5.25H12.75C12.3358 5.25 12 4.91421 12 4.5C12 4.08579 12.3358 3.75 12.75 3.75H17.25C17.3517 3.75 17.4487 3.77024 17.5371 3.80691C17.6255 3.84351 17.7084 3.89776 17.7803 3.96967C17.8522 4.04158 17.9065 4.12445 17.9431 4.21291C17.9751 4.29009 17.9946 4.37376 17.999 4.46141C17.9997 4.47419 18 4.48706 18 4.5Z" fill="black"/>
<mask id="mask0_624_8779" style="mask-type:alpha" maskUnits="userSpaceOnUse" x="0" y="3" width="18" height="12">
<path fill-rule="evenodd" clip-rule="evenodd" d="M18 4.5V9C18 9.41421 17.6642 9.75 17.25 9.75C16.8358 9.75 16.5 9.41421 16.5 9V6.31066L10.6553 12.1553C10.3624 12.4482 9.88756 12.4482 9.59467 12.1553L6.375 8.93566L1.28033 14.0303C0.987437 14.3232 0.512563 14.3232 0.21967 14.0303C-0.0732233 13.7374 -0.0732233 13.2626 0.21967 12.9697L5.84467 7.34467C6.13756 7.05178 6.61244 7.05178 6.90533 7.34467L10.125 10.5643L15.4393 5.25H12.75C12.3358 5.25 12 4.91421 12 4.5C12 4.08579 12.3358 3.75 12.75 3.75H17.25C17.3517 3.75 17.4487 3.77024 17.5371 3.80691C17.6255 3.84351 17.7084 3.89776 17.7803 3.96967C17.8522 4.04158 17.9065 4.12445 17.9431 4.21291C17.9751 4.29009 17.9946 4.37376 17.999 4.46141C17.9997 4.47419 18 4.48706 18 4.5Z" fill="white"/>
</mask>
<g mask="url(#mask0_624_8779)">
<rect width="18" height="18" fill="#795DE3"/>
</g>
</svg>
