<svg width="14" height="14" viewBox="0 0 14 14" fill="none" xmlns="http://www.w3.org/2000/svg">
<path fill-rule="evenodd" clip-rule="evenodd" d="M6.41942 7.00016V1.16683C6.41942 0.844663 6.68059 0.583496 7.00275 0.583496C7.32492 0.583496 7.58608 0.844663 7.58608 1.16683V7.00016C7.58608 7.32233 7.32492 7.5835 7.00275 7.5835C6.68059 7.5835 6.41942 7.32233 6.41942 7.00016ZM10.2995 10.8852C12.1219 9.063 12.1222 6.10851 10.3002 4.28591C10.0724 4.05806 10.0725 3.68872 10.3003 3.46095C10.5282 3.23318 10.8975 3.23324 11.1253 3.46108C13.4028 5.73934 13.4024 9.43246 11.1244 11.7102C8.8464 13.988 5.15328 13.988 2.87527 11.7102C0.597265 9.43246 0.596863 5.73934 2.87437 3.46108C3.10214 3.23324 3.47149 3.23318 3.69933 3.46095C3.92718 3.68872 3.92724 4.05806 3.69947 4.28591C1.87746 6.10851 1.87778 9.063 3.70019 10.8852C5.52259 12.7074 8.47708 12.7074 10.2995 10.8852Z" fill="black"/>
<mask id="mask0_624_7959" style="mask-type:alpha" maskUnits="userSpaceOnUse" x="1" y="0" width="12" height="14">
<path fill-rule="evenodd" clip-rule="evenodd" d="M6.41942 7.00016V1.16683C6.41942 0.844663 6.68059 0.583496 7.00275 0.583496C7.32492 0.583496 7.58608 0.844663 7.58608 1.16683V7.00016C7.58608 7.32233 7.32492 7.5835 7.00275 7.5835C6.68059 7.5835 6.41942 7.32233 6.41942 7.00016ZM10.2995 10.8852C12.1219 9.063 12.1222 6.10851 10.3002 4.28591C10.0724 4.05806 10.0725 3.68872 10.3003 3.46095C10.5282 3.23318 10.8975 3.23324 11.1253 3.46108C13.4028 5.73934 13.4024 9.43246 11.1244 11.7102C8.8464 13.988 5.15328 13.988 2.87527 11.7102C0.597265 9.43246 0.596863 5.73934 2.87437 3.46108C3.10214 3.23324 3.47149 3.23318 3.69933 3.46095C3.92718 3.68872 3.92724 4.05806 3.69947 4.28591C1.87746 6.10851 1.87778 9.063 3.70019 10.8852C5.52259 12.7074 8.47708 12.7074 10.2995 10.8852Z" fill="white"/>
</mask>
<g mask="url(#mask0_624_7959)">
<rect width="14" height="14" fill="white"/>
</g>
</svg>
