<svg width="18" height="18" viewBox="0 0 18 18" fill="none" xmlns="http://www.w3.org/2000/svg">
<path fill-rule="evenodd" clip-rule="evenodd" d="M1.5 13.5C0.5 13.5 0.5 12 1.5 12C2.32843 12 3 11.3284 3 10.5V6.75C3 3.43629 5.68629 0.75 9 0.75C12.3137 0.75 15 3.43629 15 6.75V10.5C15 11.3284 15.6716 12 16.5 12C17.5 12 17.5 13.5 16.5 13.5H1.5ZM13.5 10.5V6.75C13.5 4.26472 11.4853 2.25 9.00001 2.25C6.51473 2.25 4.50001 4.26472 4.50001 6.75V10.5C4.50001 11.0464 4.35392 11.5587 4.09866 12H13.9014C13.6461 11.5587 13.5 11.0464 13.5 10.5ZM8.99999 17.2473C9.80219 17.2473 10.5437 16.8202 10.9462 16.1263C11.2363 15.6263 10.8755 15 10.2975 15H7.70249C7.12445 15 6.7637 15.6263 7.05374 16.1263C7.45626 16.8202 8.19778 17.2473 8.99999 17.2473Z" fill="black"/>
<mask id="mask0_624_4985" style="mask-type:alpha" maskUnits="userSpaceOnUse" x="0" y="0" width="18" height="18">
<path fill-rule="evenodd" clip-rule="evenodd" d="M1.5 13.5C0.5 13.5 0.5 12 1.5 12C2.32843 12 3 11.3284 3 10.5V6.75C3 3.43629 5.68629 0.75 9 0.75C12.3137 0.75 15 3.43629 15 6.75V10.5C15 11.3284 15.6716 12 16.5 12C17.5 12 17.5 13.5 16.5 13.5H1.5ZM13.5 10.5V6.75C13.5 4.26472 11.4853 2.25 9.00001 2.25C6.51473 2.25 4.50001 4.26472 4.50001 6.75V10.5C4.50001 11.0464 4.35392 11.5587 4.09866 12H13.9014C13.6461 11.5587 13.5 11.0464 13.5 10.5ZM8.99999 17.2473C9.80219 17.2473 10.5437 16.8202 10.9462 16.1263C11.2363 15.6263 10.8755 15 10.2975 15H7.70249C7.12445 15 6.7637 15.6263 7.05374 16.1263C7.45626 16.8202 8.19778 17.2473 8.99999 17.2473Z" fill="white"/>
</mask>
<g mask="url(#mask0_624_4985)">
<rect width="18" height="18" fill="white" fill-opacity="0.74"/>
</g>
</svg>
