<svg width="18" height="18" viewBox="0 0 18 18" fill="none" xmlns="http://www.w3.org/2000/svg">
<path fill-rule="evenodd" clip-rule="evenodd" d="M13.772 4.28025C16.4071 6.91612 16.4071 11.1889 13.772 13.8247C13.4792 14.1177 13.4792 14.5926 13.7722 14.8854C14.0651 15.1783 14.54 15.1782 14.8328 14.8853C18.0535 11.6636 18.0535 6.44137 14.8328 3.21975C14.54 2.92681 14.0651 2.92674 13.7722 3.21959C13.4792 3.51244 13.4792 3.98731 13.772 4.28025ZM7.78148 3.21685L4.23691 6.0525H1.5C1.08579 6.0525 0.75 6.38829 0.75 6.8025V11.3025C0.75 11.7167 1.08579 12.0525 1.5 12.0525H4.23691L7.78148 14.8882C8.27255 15.281 9 14.9314 9 14.3025V3.8025C9 3.17362 8.27255 2.82399 7.78148 3.21685ZM4.96852 7.38815L7.5 5.36297V12.742L4.96852 10.7168C4.83554 10.6105 4.6703 10.5525 4.5 10.5525H2.25V7.5525H4.5C4.6703 7.5525 4.83554 7.49454 4.96852 7.38815ZM11.1246 11.1698C12.2957 9.99825 12.2957 8.09925 11.1246 6.92775C10.8317 6.63481 10.8318 6.15994 11.1247 5.86709C11.4177 5.57424 11.8926 5.57431 12.1854 5.86725C13.9421 7.6245 13.9421 10.473 12.1854 12.2303C11.8926 12.5232 11.4177 12.5233 11.1247 12.2304C10.8318 11.9376 10.8317 11.4627 11.1246 11.1698Z" fill="black"/>
<mask id="mask0_624_7888" style="mask-type:alpha" maskUnits="userSpaceOnUse" x="0" y="3" width="18" height="13">
<path fill-rule="evenodd" clip-rule="evenodd" d="M13.772 4.28025C16.4071 6.91612 16.4071 11.1889 13.772 13.8247C13.4792 14.1177 13.4792 14.5926 13.7722 14.8854C14.0651 15.1783 14.54 15.1782 14.8328 14.8853C18.0535 11.6636 18.0535 6.44137 14.8328 3.21975C14.54 2.92681 14.0651 2.92674 13.7722 3.21959C13.4792 3.51244 13.4792 3.98731 13.772 4.28025ZM7.78148 3.21685L4.23691 6.0525H1.5C1.08579 6.0525 0.75 6.38829 0.75 6.8025V11.3025C0.75 11.7167 1.08579 12.0525 1.5 12.0525H4.23691L7.78148 14.8882C8.27255 15.281 9 14.9314 9 14.3025V3.8025C9 3.17362 8.27255 2.82399 7.78148 3.21685ZM4.96852 7.38815L7.5 5.36297V12.742L4.96852 10.7168C4.83554 10.6105 4.6703 10.5525 4.5 10.5525H2.25V7.5525H4.5C4.6703 7.5525 4.83554 7.49454 4.96852 7.38815ZM11.1246 11.1698C12.2957 9.99825 12.2957 8.09925 11.1246 6.92775C10.8317 6.63481 10.8318 6.15994 11.1247 5.86709C11.4177 5.57424 11.8926 5.57431 12.1854 5.86725C13.9421 7.6245 13.9421 10.473 12.1854 12.2303C11.8926 12.5232 11.4177 12.5233 11.1247 12.2304C10.8318 11.9376 10.8317 11.4627 11.1246 11.1698Z" fill="white"/>
</mask>
<g mask="url(#mask0_624_7888)">
<rect width="18" height="18" fill="white" fill-opacity="0.74"/>
</g>
</svg>
