<svg width="6" height="7" viewBox="0 0 6 7" fill="none" xmlns="http://www.w3.org/2000/svg">
<path d="M2.06171 2.02677L2.7761 0.42965C2.8678 0.224622 3.13274 0.224622 3.22445 0.42965L3.93884 2.02677L5.53643 2.28446C5.74141 2.31752 5.8231 2.59557 5.67471 2.75507L4.5189 3.99738L4.79167 5.75244C4.8267 5.97782 4.61232 6.14969 4.42891 6.04325L3.00027 5.21416L1.57163 6.04325C1.38823 6.14969 1.17384 5.97782 1.20887 5.75244L1.48164 3.99738L0.325839 2.75507C0.177441 2.59557 0.259136 2.31752 0.464115 2.28446L2.06171 2.02677Z" fill="black"/>
<mask id="mask0_624_6009" style="mask-type:alpha" maskUnits="userSpaceOnUse" x="0" y="0" width="6" height="7">
<path d="M2.06171 2.02677L2.7761 0.42965C2.8678 0.224622 3.13274 0.224622 3.22445 0.42965L3.93884 2.02677L5.53643 2.28446C5.74141 2.31752 5.8231 2.59557 5.67471 2.75507L4.5189 3.99738L4.79167 5.75244C4.8267 5.97782 4.61232 6.14969 4.42891 6.04325L3.00027 5.21416L1.57163 6.04325C1.38823 6.14969 1.17384 5.97782 1.20887 5.75244L1.48164 3.99738L0.325839 2.75507C0.177441 2.59557 0.259136 2.31752 0.464115 2.28446L2.06171 2.02677Z" fill="white"/>
</mask>
<g mask="url(#mask0_624_6009)">
<rect width="6" height="6.62121" fill="#795DE3"/>
</g>
</svg>
