<svg width="7" height="6" viewBox="0 0 7 6" fill="none" xmlns="http://www.w3.org/2000/svg">
<path d="M2.379 1.83662L3.2033 0.389344C3.30912 0.203552 3.61481 0.203552 3.72063 0.389344L4.54492 1.83662L6.3883 2.07013C6.62481 2.10009 6.71908 2.35205 6.54785 2.49659L5.21423 3.62234L5.52897 5.21274C5.56938 5.41698 5.32201 5.57272 5.11039 5.47627L3.46196 4.72496L1.81354 5.47627C1.60191 5.57272 1.35454 5.41698 1.39496 5.21274L1.7097 3.62234L0.376081 2.49659C0.204852 2.35205 0.299116 2.10009 0.53563 2.07013L2.379 1.83662Z" fill="black"/>
<mask id="mask0_624_9784" style="mask-type:alpha" maskUnits="userSpaceOnUse" x="0" y="0" width="7" height="6">
<path d="M2.379 1.83662L3.2033 0.389344C3.30912 0.203552 3.61481 0.203552 3.72063 0.389344L4.54492 1.83662L6.3883 2.07013C6.62481 2.10009 6.71908 2.35205 6.54785 2.49659L5.21423 3.62234L5.52897 5.21274C5.56938 5.41698 5.32201 5.57272 5.11039 5.47627L3.46196 4.72496L1.81354 5.47627C1.60191 5.57272 1.35454 5.41698 1.39496 5.21274L1.7097 3.62234L0.376081 2.49659C0.204852 2.35205 0.299116 2.10009 0.53563 2.07013L2.379 1.83662Z" fill="white"/>
</mask>
<g mask="url(#mask0_624_9784)">
<rect width="6.92307" height="6" fill="#795DE3"/>
</g>
</svg>
