<svg width="6" height="7" viewBox="0 0 6 7" fill="none" xmlns="http://www.w3.org/2000/svg">
<path d="M2.06171 1.98773L2.7761 0.421322C2.8678 0.220236 3.13274 0.220236 3.22445 0.421322L3.93884 1.98773L5.53643 2.24047C5.74141 2.27289 5.8231 2.54559 5.67471 2.70203L4.5189 3.92045L4.79167 5.64177C4.8267 5.86282 4.61232 6.03139 4.42891 5.92699L3.00027 5.11384L1.57163 5.92699C1.38823 6.03139 1.17384 5.86282 1.20887 5.64177L1.48164 3.92045L0.325839 2.70203C0.177441 2.54559 0.259136 2.27289 0.464115 2.24047L2.06171 1.98773Z" fill="black"/>
<mask id="mask0_624_6228" style="mask-type:alpha" maskUnits="userSpaceOnUse" x="0" y="0" width="6" height="6">
<path d="M2.06171 1.98773L2.7761 0.421322C2.8678 0.220236 3.13274 0.220236 3.22445 0.421322L3.93884 1.98773L5.53643 2.24047C5.74141 2.27289 5.8231 2.54559 5.67471 2.70203L4.5189 3.92045L4.79167 5.64177C4.8267 5.86282 4.61232 6.03139 4.42891 5.92699L3.00027 5.11384L1.57163 5.92699C1.38823 6.03139 1.17384 5.86282 1.20887 5.64177L1.48164 3.92045L0.325839 2.70203C0.177441 2.54559 0.259136 2.27289 0.464115 2.24047L2.06171 1.98773Z" fill="white"/>
</mask>
<g mask="url(#mask0_624_6228)">
<rect width="6" height="6.49391" fill="#795DE3"/>
</g>
</svg>
