<svg width="22" height="22" viewBox="0 0 22 22" fill="none" xmlns="http://www.w3.org/2000/svg">
<path fill-rule="evenodd" clip-rule="evenodd" d="M2.18738 7.52651L10.4374 1.10984C10.7684 0.852383 11.2319 0.852383 11.5629 1.10984L19.8129 7.52651C20.0362 7.70018 20.1668 7.96721 20.1668 8.25008V18.3334C20.1668 19.8522 18.9356 21.0834 17.4168 21.0834L13.7502 21.0834H8.25016L4.5835 21.0834C3.06471 21.0834 1.8335 19.8522 1.8335 18.3334V8.25008C1.8335 7.96721 1.9641 7.70018 2.18738 7.52651ZM9.16683 19.2501H12.8335V11.9167H9.16683V19.2501ZM14.6668 19.2501V11.0001C14.6668 10.4938 14.2564 10.0834 13.7502 10.0834H8.25016C7.7439 10.0834 7.3335 10.4938 7.3335 11.0001V19.2501H4.5835C4.07723 19.2501 3.66683 18.8397 3.66683 18.3334V8.69841L11.0002 2.9947L18.3335 8.69841V18.3334C18.3335 18.8397 17.9231 19.2501 17.4168 19.2501H14.6668Z" fill="black"/>
<mask id="mask0_624_8989" style="mask-type:alpha" maskUnits="userSpaceOnUse" x="1" y="0" width="20" height="22">
<path fill-rule="evenodd" clip-rule="evenodd" d="M2.18738 7.52651L10.4374 1.10984C10.7684 0.852383 11.2319 0.852383 11.5629 1.10984L19.8129 7.52651C20.0362 7.70018 20.1668 7.96721 20.1668 8.25008V18.3334C20.1668 19.8522 18.9356 21.0834 17.4168 21.0834L13.7502 21.0834H8.25016L4.5835 21.0834C3.06471 21.0834 1.8335 19.8522 1.8335 18.3334V8.25008C1.8335 7.96721 1.9641 7.70018 2.18738 7.52651ZM9.16683 19.2501H12.8335V11.9167H9.16683V19.2501ZM14.6668 19.2501V11.0001C14.6668 10.4938 14.2564 10.0834 13.7502 10.0834H8.25016C7.7439 10.0834 7.3335 10.4938 7.3335 11.0001V19.2501H4.5835C4.07723 19.2501 3.66683 18.8397 3.66683 18.3334V8.69841L11.0002 2.9947L18.3335 8.69841V18.3334C18.3335 18.8397 17.9231 19.2501 17.4168 19.2501H14.6668Z" fill="white"/>
</mask>
<g mask="url(#mask0_624_8989)">
<rect width="22" height="22" fill="#795DE3"/>
</g>
</svg>
