<svg width="22" height="22" viewBox="0 0 22 22" fill="none" xmlns="http://www.w3.org/2000/svg">
<path fill-rule="evenodd" clip-rule="evenodd" d="M11.0028 0.916997L10.9998 0.916992C5.43097 0.916992 0.916504 5.43145 0.916504 11.0003C0.916504 16.5692 5.43097 21.0837 10.9998 21.0837C16.5687 21.0837 21.0832 16.5692 21.0832 11.0003C21.0832 5.43243 16.5703 0.918574 11.0028 0.916997ZM19.1995 10.0837C18.8208 6.6582 16.345 3.86481 13.0843 3.01593C14.4785 5.11253 15.3252 7.53865 15.5349 10.0837H19.1995ZM15.5373 11.917H19.1995C18.8208 15.3424 16.3451 18.1357 13.0846 18.9846C14.484 16.8813 15.3318 14.4499 15.5373 11.917ZM13.697 10.0837C13.4668 7.59657 12.5303 5.22708 10.9998 3.2552C9.46348 5.23416 8.52579 7.61108 8.30003 10.0837H13.697ZM8.30261 11.917H13.6996C13.4738 14.3896 12.5362 16.7665 10.9998 18.7455C9.46929 16.7736 8.53288 14.4041 8.30261 11.917ZM6.46244 10.0837C6.66796 7.55073 7.5157 5.11937 8.91509 3.016C5.65459 3.86495 3.17884 6.65829 2.80019 10.0837H6.46244ZM2.80019 11.917H6.46484C6.6745 14.462 7.52119 16.8881 8.91538 18.9847C5.65473 18.1359 3.17885 15.3425 2.80019 11.917Z" fill="black"/>
<mask id="mask0_624_8302" style="mask-type:alpha" maskUnits="userSpaceOnUse" x="0" y="0" width="22" height="22">
<path fill-rule="evenodd" clip-rule="evenodd" d="M11.0028 0.916997L10.9998 0.916992C5.43097 0.916992 0.916504 5.43145 0.916504 11.0003C0.916504 16.5692 5.43097 21.0837 10.9998 21.0837C16.5687 21.0837 21.0832 16.5692 21.0832 11.0003C21.0832 5.43243 16.5703 0.918574 11.0028 0.916997ZM19.1995 10.0837C18.8208 6.6582 16.345 3.86481 13.0843 3.01593C14.4785 5.11253 15.3252 7.53865 15.5349 10.0837H19.1995ZM15.5373 11.917H19.1995C18.8208 15.3424 16.3451 18.1357 13.0846 18.9846C14.484 16.8813 15.3318 14.4499 15.5373 11.917ZM13.697 10.0837C13.4668 7.59657 12.5303 5.22708 10.9998 3.2552C9.46348 5.23416 8.52579 7.61108 8.30003 10.0837H13.697ZM8.30261 11.917H13.6996C13.4738 14.3896 12.5362 16.7665 10.9998 18.7455C9.46929 16.7736 8.53288 14.4041 8.30261 11.917ZM6.46244 10.0837C6.66796 7.55073 7.5157 5.11937 8.91509 3.016C5.65459 3.86495 3.17884 6.65829 2.80019 10.0837H6.46244ZM2.80019 11.917H6.46484C6.6745 14.462 7.52119 16.8881 8.91538 18.9847C5.65473 18.1359 3.17885 15.3425 2.80019 11.917Z" fill="white"/>
</mask>
<g mask="url(#mask0_624_8302)">
<rect width="22" height="22" fill="white" fill-opacity="0.74"/>
</g>
</svg>
