<svg width="24" height="24" viewBox="0 0 24 24" fill="none" xmlns="http://www.w3.org/2000/svg">
<path fill-rule="evenodd" clip-rule="evenodd" d="M13.2929 18.7071C12.9024 18.3166 12.9024 17.6834 13.2929 17.2929L17.5858 13H4C3.44772 13 3 12.5523 3 12C3 11.4477 3.44772 11 4 11H17.5858L13.2929 6.70711C12.9024 6.31658 12.9024 5.68342 13.2929 5.29289C13.6834 4.90237 14.3166 4.90237 14.7071 5.29289L20.7071 11.2929C20.8902 11.476 20.9874 11.7123 20.9989 11.952C20.9996 11.968 21 11.984 21 12M20.9241 12.3828C20.8753 12.5007 20.803 12.6112 20.7071 12.7071L14.7071 18.7071C14.3166 19.0976 13.6834 19.0976 13.2929 18.7071M20.9241 12.3828C20.9719 12.2676 20.9988 12.1415 21 12.0092L20.9241 12.3828Z" fill="black"/>
<mask id="mask0_624_6863" style="mask-type:alpha" maskUnits="userSpaceOnUse" x="3" y="5" width="18" height="14">
<path fill-rule="evenodd" clip-rule="evenodd" d="M13.2929 18.7071C12.9024 18.3166 12.9024 17.6834 13.2929 17.2929L17.5858 13H4C3.44772 13 3 12.5523 3 12C3 11.4477 3.44772 11 4 11H17.5858L13.2929 6.70711C12.9024 6.31658 12.9024 5.68342 13.2929 5.29289C13.6834 4.90237 14.3166 4.90237 14.7071 5.29289L20.7071 11.2929C20.8902 11.476 20.9874 11.7123 20.9989 11.952C20.9996 11.968 21 11.984 21 12M20.9241 12.3828C20.8753 12.5007 20.803 12.6112 20.7071 12.7071L14.7071 18.7071C14.3166 19.0976 13.6834 19.0976 13.2929 18.7071M20.9241 12.3828C20.9719 12.2676 20.9988 12.1415 21 12.0092L20.9241 12.3828Z" fill="white"/>
</mask>
<g mask="url(#mask0_624_6863)">
<rect width="24" height="24" fill="#795DE3"/>
</g>
</svg>
