<svg width="24" height="26" viewBox="0 0 24 26" fill="none" xmlns="http://www.w3.org/2000/svg">
<path fill-rule="evenodd" clip-rule="evenodd" d="M12 24.8935C5.92487 24.8935 1 19.5633 1 12.988C1 6.4128 5.92487 1.08252 12 1.08252C18.0751 1.08252 23 6.4128 23 12.988C23 19.5633 18.0751 24.8935 12 24.8935ZM12 22.7289C16.9706 22.7289 21 18.3678 21 12.988C21 7.60829 16.9706 3.24716 12 3.24716C7.02944 3.24716 3 7.60829 3 12.988C3 18.3678 7.02944 22.7289 12 22.7289ZM16.5547 12.0875L10.5547 7.75821C9.89015 7.2787 9 7.79431 9 8.65875V17.3173C9 18.1817 9.89015 18.6974 10.5547 18.2178L16.5547 13.8886C17.1484 13.4602 17.1484 12.5159 16.5547 12.0875Z" fill="black"/>
<mask id="mask0_624_6232" style="mask-type:alpha" maskUnits="userSpaceOnUse" x="1" y="1" width="22" height="24">
<path fill-rule="evenodd" clip-rule="evenodd" d="M12 24.8935C5.92487 24.8935 1 19.5633 1 12.988C1 6.4128 5.92487 1.08252 12 1.08252C18.0751 1.08252 23 6.4128 23 12.988C23 19.5633 18.0751 24.8935 12 24.8935ZM12 22.7289C16.9706 22.7289 21 18.3678 21 12.988C21 7.60829 16.9706 3.24716 12 3.24716C7.02944 3.24716 3 7.60829 3 12.988C3 18.3678 7.02944 22.7289 12 22.7289ZM16.5547 12.0875L10.5547 7.75821C9.89015 7.2787 9 7.79431 9 8.65875V17.3173C9 18.1817 9.89015 18.6974 10.5547 18.2178L16.5547 13.8886C17.1484 13.4602 17.1484 12.5159 16.5547 12.0875Z" fill="white"/>
</mask>
<g mask="url(#mask0_624_6232)">
<rect width="24" height="25.9757" fill="white"/>
</g>
</svg>
