<svg width="22" height="22" viewBox="0 0 22 22" fill="none" xmlns="http://www.w3.org/2000/svg">
<path fill-rule="evenodd" clip-rule="evenodd" d="M11.0028 0.916508L10.9998 0.916504C5.43097 0.916504 0.916504 5.43097 0.916504 10.9998C0.916504 16.5687 5.43097 21.0832 10.9998 21.0832C16.5687 21.0832 21.0832 16.5687 21.0832 10.9998C21.0832 5.43194 16.5703 0.918086 11.0028 0.916508ZM19.1995 10.0832C18.8208 6.65771 16.345 3.86432 13.0843 3.01544C14.4785 5.11204 15.3252 7.53816 15.5349 10.0832H19.1995ZM15.5373 11.9165H19.1995C18.8208 15.3419 16.3451 18.1352 13.0846 18.9842C14.484 16.8808 15.3318 14.4494 15.5373 11.9165ZM13.697 10.0832C13.4668 7.59609 12.5303 5.22659 10.9998 3.25471C9.46348 5.23367 8.52579 7.61059 8.30003 10.0832H13.697ZM8.30261 11.9165H13.6996C13.4738 14.3891 12.5362 16.766 10.9998 18.745C9.46929 16.7731 8.53288 14.4036 8.30261 11.9165ZM6.46244 10.0832C6.66796 7.55025 7.5157 5.11889 8.91509 3.01551C5.65459 3.86446 3.17884 6.6578 2.80019 10.0832H6.46244ZM2.80019 11.9165H6.46484C6.6745 14.4615 7.52119 16.8876 8.91538 18.9842C5.65473 18.1354 3.17885 15.342 2.80019 11.9165Z" fill="black"/>
<mask id="mask0_624_6986" style="mask-type:alpha" maskUnits="userSpaceOnUse" x="0" y="0" width="22" height="22">
<path fill-rule="evenodd" clip-rule="evenodd" d="M11.0028 0.916508L10.9998 0.916504C5.43097 0.916504 0.916504 5.43097 0.916504 10.9998C0.916504 16.5687 5.43097 21.0832 10.9998 21.0832C16.5687 21.0832 21.0832 16.5687 21.0832 10.9998C21.0832 5.43194 16.5703 0.918086 11.0028 0.916508ZM19.1995 10.0832C18.8208 6.65771 16.345 3.86432 13.0843 3.01544C14.4785 5.11204 15.3252 7.53816 15.5349 10.0832H19.1995ZM15.5373 11.9165H19.1995C18.8208 15.3419 16.3451 18.1352 13.0846 18.9842C14.484 16.8808 15.3318 14.4494 15.5373 11.9165ZM13.697 10.0832C13.4668 7.59609 12.5303 5.22659 10.9998 3.25471C9.46348 5.23367 8.52579 7.61059 8.30003 10.0832H13.697ZM8.30261 11.9165H13.6996C13.4738 14.3891 12.5362 16.766 10.9998 18.745C9.46929 16.7731 8.53288 14.4036 8.30261 11.9165ZM6.46244 10.0832C6.66796 7.55025 7.5157 5.11889 8.91509 3.01551C5.65459 3.86446 3.17884 6.6578 2.80019 10.0832H6.46244ZM2.80019 11.9165H6.46484C6.6745 14.4615 7.52119 16.8876 8.91538 18.9842C5.65473 18.1354 3.17885 15.342 2.80019 11.9165Z" fill="white"/>
</mask>
<g mask="url(#mask0_624_6986)">
<rect width="22" height="22" fill="#795DE3"/>
</g>
</svg>
