<svg width="22" height="22" viewBox="0 0 22 22" fill="none" xmlns="http://www.w3.org/2000/svg">
<path fill-rule="evenodd" clip-rule="evenodd" d="M11 10.9997C8.46869 10.9997 6.41667 8.94765 6.41667 6.41634C6.41667 3.88504 8.46869 1.83301 11 1.83301C13.5313 1.83301 15.5833 3.88504 15.5833 6.41634C15.5833 8.94765 13.5313 10.9997 11 10.9997ZM19.25 19.2497V17.4163C19.25 14.885 17.198 12.833 14.6667 12.833H7.33333C4.80203 12.833 2.75 14.885 2.75 17.4163V19.2497C2.75 19.7559 3.16041 20.1663 3.66667 20.1663C4.17293 20.1663 4.58333 19.7559 4.58333 19.2497V17.4163C4.58333 15.8976 5.81455 14.6663 7.33333 14.6663H14.6667C16.1854 14.6663 17.4167 15.8976 17.4167 17.4163V19.2497C17.4167 19.7559 17.8271 20.1663 18.3333 20.1663C18.8396 20.1663 19.25 19.7559 19.25 19.2497ZM13.75 6.41634C13.75 7.93512 12.5188 9.16634 11 9.16634C9.48122 9.16634 8.25 7.93512 8.25 6.41634C8.25 4.89756 9.48122 3.66634 11 3.66634C12.5188 3.66634 13.75 4.89756 13.75 6.41634Z" fill="black"/>
<mask id="mask0_624_8879" style="mask-type:alpha" maskUnits="userSpaceOnUse" x="2" y="1" width="18" height="20">
<path fill-rule="evenodd" clip-rule="evenodd" d="M11 10.9997C8.46869 10.9997 6.41667 8.94765 6.41667 6.41634C6.41667 3.88504 8.46869 1.83301 11 1.83301C13.5313 1.83301 15.5833 3.88504 15.5833 6.41634C15.5833 8.94765 13.5313 10.9997 11 10.9997ZM19.25 19.2497V17.4163C19.25 14.885 17.198 12.833 14.6667 12.833H7.33333C4.80203 12.833 2.75 14.885 2.75 17.4163V19.2497C2.75 19.7559 3.16041 20.1663 3.66667 20.1663C4.17293 20.1663 4.58333 19.7559 4.58333 19.2497V17.4163C4.58333 15.8976 5.81455 14.6663 7.33333 14.6663H14.6667C16.1854 14.6663 17.4167 15.8976 17.4167 17.4163V19.2497C17.4167 19.7559 17.8271 20.1663 18.3333 20.1663C18.8396 20.1663 19.25 19.7559 19.25 19.2497ZM13.75 6.41634C13.75 7.93512 12.5188 9.16634 11 9.16634C9.48122 9.16634 8.25 7.93512 8.25 6.41634C8.25 4.89756 9.48122 3.66634 11 3.66634C12.5188 3.66634 13.75 4.89756 13.75 6.41634Z" fill="white"/>
</mask>
<g mask="url(#mask0_624_8879)">
<rect width="22" height="22" fill="white" fill-opacity="0.74"/>
</g>
</svg>
