<svg width="22" height="22" viewBox="0 0 22 22" fill="none" xmlns="http://www.w3.org/2000/svg">
<path fill-rule="evenodd" clip-rule="evenodd" d="M2.18738 7.52626L10.4374 1.1096C10.7684 0.852139 11.2319 0.852139 11.5629 1.1096L19.8129 7.52626C20.0362 7.69993 20.1668 7.96696 20.1668 8.24984V18.3332C20.1668 19.852 18.9356 21.0832 17.4168 21.0832L13.7502 21.0832H8.25016L4.5835 21.0832C3.06471 21.0832 1.8335 19.852 1.8335 18.3332V8.24984C1.8335 7.96696 1.9641 7.69993 2.18738 7.52626ZM9.16683 19.2498H12.8335V11.9165H9.16683V19.2498ZM14.6668 19.2498V10.9998C14.6668 10.4936 14.2564 10.0832 13.7502 10.0832H8.25016C7.7439 10.0832 7.3335 10.4936 7.3335 10.9998V19.2498H4.5835C4.07723 19.2498 3.66683 18.8394 3.66683 18.3332V8.69816L11.0002 2.99446L18.3335 8.69816V18.3332C18.3335 18.8394 17.9231 19.2498 17.4168 19.2498H14.6668Z" fill="black"/>
<mask id="mask0_624_5516" style="mask-type:alpha" maskUnits="userSpaceOnUse" x="1" y="0" width="20" height="22">
<path fill-rule="evenodd" clip-rule="evenodd" d="M2.18738 7.52626L10.4374 1.1096C10.7684 0.852139 11.2319 0.852139 11.5629 1.1096L19.8129 7.52626C20.0362 7.69993 20.1668 7.96696 20.1668 8.24984V18.3332C20.1668 19.852 18.9356 21.0832 17.4168 21.0832L13.7502 21.0832H8.25016L4.5835 21.0832C3.06471 21.0832 1.8335 19.852 1.8335 18.3332V8.24984C1.8335 7.96696 1.9641 7.69993 2.18738 7.52626ZM9.16683 19.2498H12.8335V11.9165H9.16683V19.2498ZM14.6668 19.2498V10.9998C14.6668 10.4936 14.2564 10.0832 13.7502 10.0832H8.25016C7.7439 10.0832 7.3335 10.4936 7.3335 10.9998V19.2498H4.5835C4.07723 19.2498 3.66683 18.8394 3.66683 18.3332V8.69816L11.0002 2.99446L18.3335 8.69816V18.3332C18.3335 18.8394 17.9231 19.2498 17.4168 19.2498H14.6668Z" fill="white"/>
</mask>
<g mask="url(#mask0_624_5516)">
<rect width="22" height="22" fill="#795DE3"/>
</g>
</svg>
