<svg width="18" height="18" viewBox="0 0 18 18" fill="none" xmlns="http://www.w3.org/2000/svg">
<path fill-rule="evenodd" clip-rule="evenodd" d="M9.00243 0.750004C13.5577 0.751316 17.25 4.44446 17.25 9C17.25 13.5563 13.5563 17.25 9 17.25C4.44365 17.25 0.75 13.5563 0.75 9C0.75 4.44443 4.44238 0.751271 8.99765 0.750004L9 0.75L9.00243 0.750004ZM2.2912 8.25C2.60101 5.4474 4.62664 3.16194 7.29435 2.46735C6.14939 4.1883 5.45578 6.1776 5.28762 8.25H2.2912ZM2.2912 9.75C2.60102 12.5527 4.62676 14.8382 7.29459 15.5327C6.15388 13.8173 5.46113 11.8323 5.28958 9.75H2.2912ZM6.79314 9.75C6.98154 11.7849 7.74769 13.7236 8.99996 15.3369C10.257 13.7178 11.0241 11.773 11.2089 9.75H6.79314ZM11.2068 8.25C11.0184 6.21511 10.2522 4.27643 8.99993 2.66308C7.74294 4.28223 6.97574 6.22698 6.79103 8.25H11.2068ZM12.7105 8.25C12.539 6.16772 11.8462 4.18272 10.7055 2.46733C13.3733 3.16188 15.399 5.44737 15.7088 8.25H12.7105ZM12.7125 9.75C12.5443 11.8224 11.8507 13.8117 10.7058 15.5326C13.3734 14.838 15.399 12.5526 15.7088 9.75H12.7125Z" fill="black"/>
<mask id="mask0_624_8752" style="mask-type:alpha" maskUnits="userSpaceOnUse" x="0" y="0" width="18" height="18">
<path fill-rule="evenodd" clip-rule="evenodd" d="M9.00243 0.750004C13.5577 0.751316 17.25 4.44446 17.25 9C17.25 13.5563 13.5563 17.25 9 17.25C4.44365 17.25 0.75 13.5563 0.75 9C0.75 4.44443 4.44238 0.751271 8.99765 0.750004L9 0.75L9.00243 0.750004ZM2.2912 8.25C2.60101 5.4474 4.62664 3.16194 7.29435 2.46735C6.14939 4.1883 5.45578 6.1776 5.28762 8.25H2.2912ZM2.2912 9.75C2.60102 12.5527 4.62676 14.8382 7.29459 15.5327C6.15388 13.8173 5.46113 11.8323 5.28958 9.75H2.2912ZM6.79314 9.75C6.98154 11.7849 7.74769 13.7236 8.99996 15.3369C10.257 13.7178 11.0241 11.773 11.2089 9.75H6.79314ZM11.2068 8.25C11.0184 6.21511 10.2522 4.27643 8.99993 2.66308C7.74294 4.28223 6.97574 6.22698 6.79103 8.25H11.2068ZM12.7105 8.25C12.539 6.16772 11.8462 4.18272 10.7055 2.46733C13.3733 3.16188 15.399 5.44737 15.7088 8.25H12.7105ZM12.7125 9.75C12.5443 11.8224 11.8507 13.8117 10.7058 15.5326C13.3734 14.838 15.399 12.5526 15.7088 9.75H12.7125Z" fill="white"/>
</mask>
<g mask="url(#mask0_624_8752)">
<rect width="18" height="18" fill="#795DE3"/>
</g>
</svg>
