<svg width="22" height="22" viewBox="0 0 22 22" fill="none" xmlns="http://www.w3.org/2000/svg">
<path fill-rule="evenodd" clip-rule="evenodd" d="M2.18738 7.52675L10.4374 1.11009C10.7684 0.852628 11.2319 0.852628 11.5629 1.11009L19.8129 7.52675C20.0362 7.70042 20.1668 7.96745 20.1668 8.25033V18.3337C20.1668 19.8524 18.9356 21.0837 17.4168 21.0837L13.7502 21.0837H8.25016L4.5835 21.0837C3.06471 21.0837 1.8335 19.8524 1.8335 18.3337V8.25033C1.8335 7.96745 1.9641 7.70042 2.18738 7.52675ZM9.16683 19.2503H12.8335V11.917H9.16683V19.2503ZM14.6668 19.2503V11.0003C14.6668 10.4941 14.2564 10.0837 13.7502 10.0837H8.25016C7.7439 10.0837 7.3335 10.4941 7.3335 11.0003V19.2503H4.5835C4.07723 19.2503 3.66683 18.8399 3.66683 18.3337V8.69865L11.0002 2.99495L18.3335 8.69865V18.3337C18.3335 18.8399 17.9231 19.2503 17.4168 19.2503H14.6668Z" fill="black"/>
<mask id="mask0_624_7769" style="mask-type:alpha" maskUnits="userSpaceOnUse" x="1" y="0" width="20" height="22">
<path fill-rule="evenodd" clip-rule="evenodd" d="M2.18738 7.52675L10.4374 1.11009C10.7684 0.852628 11.2319 0.852628 11.5629 1.11009L19.8129 7.52675C20.0362 7.70042 20.1668 7.96745 20.1668 8.25033V18.3337C20.1668 19.8524 18.9356 21.0837 17.4168 21.0837L13.7502 21.0837H8.25016L4.5835 21.0837C3.06471 21.0837 1.8335 19.8524 1.8335 18.3337V8.25033C1.8335 7.96745 1.9641 7.70042 2.18738 7.52675ZM9.16683 19.2503H12.8335V11.917H9.16683V19.2503ZM14.6668 19.2503V11.0003C14.6668 10.4941 14.2564 10.0837 13.7502 10.0837H8.25016C7.7439 10.0837 7.3335 10.4941 7.3335 11.0003V19.2503H4.5835C4.07723 19.2503 3.66683 18.8399 3.66683 18.3337V8.69865L11.0002 2.99495L18.3335 8.69865V18.3337C18.3335 18.8399 17.9231 19.2503 17.4168 19.2503H14.6668Z" fill="white"/>
</mask>
<g mask="url(#mask0_624_7769)">
<rect width="22" height="22" fill="white" fill-opacity="0.74"/>
</g>
</svg>
