<svg width="22" height="22" viewBox="0 0 22 22" fill="none" xmlns="http://www.w3.org/2000/svg">
<path fill-rule="evenodd" clip-rule="evenodd" d="M11 10.9999C8.46869 10.9999 6.41667 8.94789 6.41667 6.41659C6.41667 3.88528 8.46869 1.83325 11 1.83325C13.5313 1.83325 15.5833 3.88528 15.5833 6.41659C15.5833 8.94789 13.5313 10.9999 11 10.9999ZM19.25 19.2499V17.4166C19.25 14.8853 17.198 12.8333 14.6667 12.8333H7.33333C4.80203 12.8333 2.75 14.8853 2.75 17.4166V19.2499C2.75 19.7562 3.16041 20.1666 3.66667 20.1666C4.17293 20.1666 4.58333 19.7562 4.58333 19.2499V17.4166C4.58333 15.8978 5.81455 14.6666 7.33333 14.6666H14.6667C16.1854 14.6666 17.4167 15.8978 17.4167 17.4166V19.2499C17.4167 19.7562 17.8271 20.1666 18.3333 20.1666C18.8396 20.1666 19.25 19.7562 19.25 19.2499ZM13.75 6.41658C13.75 7.93537 12.5188 9.16658 11 9.16658C9.48122 9.16658 8.25 7.93537 8.25 6.41658C8.25 4.8978 9.48122 3.66659 11 3.66659C12.5188 3.66659 13.75 4.8978 13.75 6.41658Z" fill="black"/>
<mask id="mask0_624_9843" style="mask-type:alpha" maskUnits="userSpaceOnUse" x="2" y="1" width="18" height="20">
<path fill-rule="evenodd" clip-rule="evenodd" d="M11 10.9999C8.46869 10.9999 6.41667 8.94789 6.41667 6.41659C6.41667 3.88528 8.46869 1.83325 11 1.83325C13.5313 1.83325 15.5833 3.88528 15.5833 6.41659C15.5833 8.94789 13.5313 10.9999 11 10.9999ZM19.25 19.2499V17.4166C19.25 14.8853 17.198 12.8333 14.6667 12.8333H7.33333C4.80203 12.8333 2.75 14.8853 2.75 17.4166V19.2499C2.75 19.7562 3.16041 20.1666 3.66667 20.1666C4.17293 20.1666 4.58333 19.7562 4.58333 19.2499V17.4166C4.58333 15.8978 5.81455 14.6666 7.33333 14.6666H14.6667C16.1854 14.6666 17.4167 15.8978 17.4167 17.4166V19.2499C17.4167 19.7562 17.8271 20.1666 18.3333 20.1666C18.8396 20.1666 19.25 19.7562 19.25 19.2499ZM13.75 6.41658C13.75 7.93537 12.5188 9.16658 11 9.16658C9.48122 9.16658 8.25 7.93537 8.25 6.41658C8.25 4.8978 9.48122 3.66659 11 3.66659C12.5188 3.66659 13.75 4.8978 13.75 6.41658Z" fill="white"/>
</mask>
<g mask="url(#mask0_624_9843)">
<rect width="22" height="22" fill="white" fill-opacity="0.74"/>
</g>
</svg>
