<svg width="18" height="18" viewBox="0 0 18 18" fill="none" xmlns="http://www.w3.org/2000/svg">
<path fill-rule="evenodd" clip-rule="evenodd" d="M3.75 12H3C2.58579 12 2.25 11.6642 2.25 11.25V3.75C2.25 3.33579 2.58579 3 3 3H15C15.4142 3 15.75 3.33579 15.75 3.75V11.25C15.75 11.6642 15.4142 12 15 12H14.25C13.8358 12 13.5 12.3358 13.5 12.75C13.5 13.1642 13.8358 13.5 14.25 13.5H15C16.2426 13.5 17.25 12.4926 17.25 11.25V3.75C17.25 2.50736 16.2426 1.5 15 1.5H3C1.75736 1.5 0.75 2.50736 0.75 3.75V11.25C0.75 12.4926 1.75736 13.5 3 13.5H3.75C4.16421 13.5 4.5 13.1642 4.5 12.75C4.5 12.3358 4.16421 12 3.75 12ZM9.57618 10.7699L13.3262 15.2699C13.7333 15.7584 13.3859 16.5 12.75 16.5H5.25001C4.61413 16.5 4.26677 15.7584 4.67384 15.2699L8.42384 10.7699C8.72369 10.41 9.27633 10.41 9.57618 10.7699ZM11.1488 15H6.85135L9.00007 12.4215L11.1488 15Z" fill="black"/>
<mask id="mask0_624_8377" style="mask-type:alpha" maskUnits="userSpaceOnUse" x="0" y="1" width="18" height="16">
<path fill-rule="evenodd" clip-rule="evenodd" d="M3.75 12H3C2.58579 12 2.25 11.6642 2.25 11.25V3.75C2.25 3.33579 2.58579 3 3 3H15C15.4142 3 15.75 3.33579 15.75 3.75V11.25C15.75 11.6642 15.4142 12 15 12H14.25C13.8358 12 13.5 12.3358 13.5 12.75C13.5 13.1642 13.8358 13.5 14.25 13.5H15C16.2426 13.5 17.25 12.4926 17.25 11.25V3.75C17.25 2.50736 16.2426 1.5 15 1.5H3C1.75736 1.5 0.75 2.50736 0.75 3.75V11.25C0.75 12.4926 1.75736 13.5 3 13.5H3.75C4.16421 13.5 4.5 13.1642 4.5 12.75C4.5 12.3358 4.16421 12 3.75 12ZM9.57618 10.7699L13.3262 15.2699C13.7333 15.7584 13.3859 16.5 12.75 16.5H5.25001C4.61413 16.5 4.26677 15.7584 4.67384 15.2699L8.42384 10.7699C8.72369 10.41 9.27633 10.41 9.57618 10.7699ZM11.1488 15H6.85135L9.00007 12.4215L11.1488 15Z" fill="white"/>
</mask>
<g mask="url(#mask0_624_8377)">
<rect width="18" height="18" fill="white" fill-opacity="0.74"/>
</g>
</svg>
