<svg width="24" height="24" viewBox="0 0 24 24" fill="none" xmlns="http://www.w3.org/2000/svg">
<path fill-rule="evenodd" clip-rule="evenodd" d="M4 3H20C21.6443 3 22.987 4.33471 22.9999 5.97605C23.0002 5.98992 23.0003 6.0038 23 6.01766V18C23 19.6523 21.6523 21 20 21H4C2.34772 21 1 19.6523 1 18V6C1 4.34772 2.34772 3 4 3ZM20.8934 5.55399C20.7281 5.22694 20.388 5 20 5H4C3.61206 5 3.27199 5.2269 3.1066 5.5539L12.0001 11.7793L20.8934 5.55399ZM3 7.9206L11.4266 13.8192C11.7709 14.0603 12.2292 14.0603 12.5735 13.8192L21 7.92072V18C21 18.5477 20.5477 19 20 19H4C3.45228 19 3 18.5477 3 18V7.9206Z" fill="black"/>
<mask id="mask0_624_8099" style="mask-type:alpha" maskUnits="userSpaceOnUse" x="1" y="3" width="22" height="18">
<path fill-rule="evenodd" clip-rule="evenodd" d="M4 3H20C21.6443 3 22.987 4.33471 22.9999 5.97605C23.0002 5.98992 23.0003 6.0038 23 6.01766V18C23 19.6523 21.6523 21 20 21H4C2.34772 21 1 19.6523 1 18V6C1 4.34772 2.34772 3 4 3ZM20.8934 5.55399C20.7281 5.22694 20.388 5 20 5H4C3.61206 5 3.27199 5.2269 3.1066 5.5539L12.0001 11.7793L20.8934 5.55399ZM3 7.9206L11.4266 13.8192C11.7709 14.0603 12.2292 14.0603 12.5735 13.8192L21 7.92072V18C21 18.5477 20.5477 19 20 19H4C3.45228 19 3 18.5477 3 18V7.9206Z" fill="white"/>
</mask>
<g mask="url(#mask0_624_8099)">
<rect width="24" height="24" fill="#795DE3"/>
</g>
</svg>
