<svg width="36" height="36" viewBox="0 0 36 36" fill="none" xmlns="http://www.w3.org/2000/svg">
<rect width="36" height="36" fill="#3E33CD" fill-opacity="0.12"/>
<path fill-rule="evenodd" clip-rule="evenodd" d="M19.579 15.9074C19.9415 16.2733 20.4443 16.5 21 16.5C22.1046 16.5 23 15.6046 23 14.5C23 13.3954 22.1046 12.5 21 12.5C19.8954 12.5 19 13.3954 19 14.5C19 14.6885 19.0261 14.8709 19.0748 15.0438L16.421 16.5926C16.0585 16.2267 15.5557 16 15 16C13.8954 16 13 16.8954 13 18C13 19.1046 13.8954 20 15 20C15.5558 20 16.0587 19.7733 16.4212 19.4072L19.0755 20.9539C19.0263 21.1275 19 21.3107 19 21.5C19 22.6046 19.8954 23.5 21 23.5C22.1046 23.5 23 22.6046 23 21.5C23 20.3954 22.1046 19.5 21 19.5C20.4451 19.5 19.943 19.726 19.5807 20.0909L16.9252 18.5436C16.9739 18.3707 17 18.1884 17 18C17 17.8115 16.9739 17.6291 16.9252 17.4562L19.579 15.9074ZM20.1501 15.0273C20.3266 15.3111 20.6412 15.5 21 15.5C21.5523 15.5 22 15.0523 22 14.5C22 13.9477 21.5523 13.5 21 13.5C20.4477 13.5 20 13.9477 20 14.5C20 14.6737 20.0443 14.837 20.1221 14.9793C20.1272 14.987 20.1321 14.9949 20.1368 15.003C20.1415 15.011 20.1459 15.0191 20.1501 15.0273ZM15.8498 17.4727C15.854 17.4809 15.8585 17.489 15.8632 17.497C15.8679 17.5051 15.8728 17.513 15.8779 17.5208C15.9557 17.6631 16 17.8264 16 18C16 18.1736 15.9557 18.3369 15.8779 18.4793C15.8727 18.4871 15.8678 18.4951 15.863 18.5033C15.8584 18.5112 15.854 18.5192 15.8498 18.5273C15.6734 18.8111 15.3588 19 15 19C14.4477 19 14 18.5523 14 18C14 17.4477 14.4477 17 15 17C15.3587 17 15.6734 17.1889 15.8498 17.4727ZM20.142 20.9967C20.1315 21.0148 20.12 21.032 20.1076 21.0482C20.0388 21.1839 20 21.3374 20 21.5C20 22.0523 20.4477 22.5 21 22.5C21.5523 22.5 22 22.0523 22 21.5C22 20.9477 21.5523 20.5 21 20.5C20.6536 20.5 20.3483 20.6762 20.1688 20.9438C20.161 20.9617 20.1521 20.9794 20.142 20.9967Z" fill="black"/>
<mask id="mask0_624_6031" style="mask-type:alpha" maskUnits="userSpaceOnUse" x="13" y="12" width="10" height="12">
<path fill-rule="evenodd" clip-rule="evenodd" d="M19.579 15.9074C19.9415 16.2733 20.4443 16.5 21 16.5C22.1046 16.5 23 15.6046 23 14.5C23 13.3954 22.1046 12.5 21 12.5C19.8954 12.5 19 13.3954 19 14.5C19 14.6885 19.0261 14.8709 19.0748 15.0438L16.421 16.5926C16.0585 16.2267 15.5557 16 15 16C13.8954 16 13 16.8954 13 18C13 19.1046 13.8954 20 15 20C15.5558 20 16.0587 19.7733 16.4212 19.4072L19.0755 20.9539C19.0263 21.1275 19 21.3107 19 21.5C19 22.6046 19.8954 23.5 21 23.5C22.1046 23.5 23 22.6046 23 21.5C23 20.3954 22.1046 19.5 21 19.5C20.4451 19.5 19.943 19.726 19.5807 20.0909L16.9252 18.5436C16.9739 18.3707 17 18.1884 17 18C17 17.8115 16.9739 17.6291 16.9252 17.4562L19.579 15.9074ZM20.1501 15.0273C20.3266 15.3111 20.6412 15.5 21 15.5C21.5523 15.5 22 15.0523 22 14.5C22 13.9477 21.5523 13.5 21 13.5C20.4477 13.5 20 13.9477 20 14.5C20 14.6737 20.0443 14.837 20.1221 14.9793C20.1272 14.987 20.1321 14.9949 20.1368 15.003C20.1415 15.011 20.1459 15.0191 20.1501 15.0273ZM15.8498 17.4727C15.854 17.4809 15.8585 17.489 15.8632 17.497C15.8679 17.5051 15.8728 17.513 15.8779 17.5208C15.9557 17.6631 16 17.8264 16 18C16 18.1736 15.9557 18.3369 15.8779 18.4793C15.8727 18.4871 15.8678 18.4951 15.863 18.5033C15.8584 18.5112 15.854 18.5192 15.8498 18.5273C15.6734 18.8111 15.3588 19 15 19C14.4477 19 14 18.5523 14 18C14 17.4477 14.4477 17 15 17C15.3587 17 15.6734 17.1889 15.8498 17.4727ZM20.142 20.9967C20.1315 21.0148 20.12 21.032 20.1076 21.0482C20.0388 21.1839 20 21.3374 20 21.5C20 22.0523 20.4477 22.5 21 22.5C21.5523 22.5 22 22.0523 22 21.5C22 20.9477 21.5523 20.5 21 20.5C20.6536 20.5 20.3483 20.6762 20.1688 20.9438C20.161 20.9617 20.1521 20.9794 20.142 20.9967Z" fill="white"/>
</mask>
<g mask="url(#mask0_624_6031)">
<rect x="12" y="12" width="12" height="12" fill="white"/>
</g>
</svg>
