<svg width="22" height="22" viewBox="0 0 22 22" fill="none" xmlns="http://www.w3.org/2000/svg">
<path fill-rule="evenodd" clip-rule="evenodd" d="M11 11.0002C8.46869 11.0002 6.41667 8.94813 6.41667 6.41683C6.41667 3.88552 8.46869 1.8335 11 1.8335C13.5313 1.8335 15.5833 3.88552 15.5833 6.41683C15.5833 8.94813 13.5313 11.0002 11 11.0002ZM19.25 19.2502V17.4168C19.25 14.8855 17.198 12.8335 14.6667 12.8335H7.33333C4.80203 12.8335 2.75 14.8855 2.75 17.4168V19.2502C2.75 19.7564 3.16041 20.1668 3.66667 20.1668C4.17293 20.1668 4.58333 19.7564 4.58333 19.2502V17.4168C4.58333 15.898 5.81455 14.6668 7.33333 14.6668H14.6667C16.1854 14.6668 17.4167 15.898 17.4167 17.4168V19.2502C17.4167 19.7564 17.8271 20.1668 18.3333 20.1668C18.8396 20.1668 19.25 19.7564 19.25 19.2502ZM13.75 6.41683C13.75 7.93561 12.5188 9.16683 11 9.16683C9.48122 9.16683 8.25 7.93561 8.25 6.41683C8.25 4.89805 9.48122 3.66683 11 3.66683C12.5188 3.66683 13.75 4.89805 13.75 6.41683Z" fill="black"/>
<mask id="mask0_624_10080" style="mask-type:alpha" maskUnits="userSpaceOnUse" x="2" y="1" width="18" height="20">
<path fill-rule="evenodd" clip-rule="evenodd" d="M11 11.0002C8.46869 11.0002 6.41667 8.94813 6.41667 6.41683C6.41667 3.88552 8.46869 1.8335 11 1.8335C13.5313 1.8335 15.5833 3.88552 15.5833 6.41683C15.5833 8.94813 13.5313 11.0002 11 11.0002ZM19.25 19.2502V17.4168C19.25 14.8855 17.198 12.8335 14.6667 12.8335H7.33333C4.80203 12.8335 2.75 14.8855 2.75 17.4168V19.2502C2.75 19.7564 3.16041 20.1668 3.66667 20.1668C4.17293 20.1668 4.58333 19.7564 4.58333 19.2502V17.4168C4.58333 15.898 5.81455 14.6668 7.33333 14.6668H14.6667C16.1854 14.6668 17.4167 15.898 17.4167 17.4168V19.2502C17.4167 19.7564 17.8271 20.1668 18.3333 20.1668C18.8396 20.1668 19.25 19.7564 19.25 19.2502ZM13.75 6.41683C13.75 7.93561 12.5188 9.16683 11 9.16683C9.48122 9.16683 8.25 7.93561 8.25 6.41683C8.25 4.89805 9.48122 3.66683 11 3.66683C12.5188 3.66683 13.75 4.89805 13.75 6.41683Z" fill="white"/>
</mask>
<g mask="url(#mask0_624_10080)">
<rect width="22" height="22" fill="white" fill-opacity="0.74"/>
</g>
</svg>
