<svg width="7" height="7" viewBox="0 0 7 7" fill="none" xmlns="http://www.w3.org/2000/svg">
<path d="M2.40521 2.1426L3.23868 0.454101C3.34567 0.237341 3.65477 0.237341 3.76176 0.454101L4.59523 2.1426L6.45911 2.41504C6.69825 2.44999 6.79356 2.74395 6.62043 2.91258L5.27198 4.22597L5.59021 6.08146C5.63108 6.31974 5.38096 6.50144 5.16698 6.38891L3.50022 5.51238L1.83346 6.38891C1.61948 6.50144 1.36936 6.31974 1.41023 6.08146L1.72846 4.22597L0.380011 2.91258C0.206877 2.74395 0.30219 2.44999 0.541335 2.41504L2.40521 2.1426Z" fill="black"/>
<mask id="mask0_624_6846" style="mask-type:alpha" maskUnits="userSpaceOnUse" x="0" y="0" width="7" height="7">
<path d="M2.40521 2.1426L3.23868 0.454101C3.34567 0.237341 3.65477 0.237341 3.76176 0.454101L4.59523 2.1426L6.45911 2.41504C6.69825 2.44999 6.79356 2.74395 6.62043 2.91258L5.27198 4.22597L5.59021 6.08146C5.63108 6.31974 5.38096 6.50144 5.16698 6.38891L3.50022 5.51238L1.83346 6.38891C1.61948 6.50144 1.36936 6.31974 1.41023 6.08146L1.72846 4.22597L0.380011 2.91258C0.206877 2.74395 0.30219 2.44999 0.541335 2.41504L2.40521 2.1426Z" fill="white"/>
</mask>
<g mask="url(#mask0_624_6846)">
<rect width="7.00008" height="7.00008" fill="#795DE3"/>
</g>
</svg>
