<svg width="18" height="19" viewBox="0 0 18 19" fill="none" xmlns="http://www.w3.org/2000/svg">
<path fill-rule="evenodd" clip-rule="evenodd" d="M9.96967 14.6332C9.67678 14.3277 9.67678 13.8324 9.96967 13.527L13.1893 10.1689H3C2.58579 10.1689 2.25 9.81873 2.25 9.38672C2.25 8.95471 2.58579 8.60449 3 8.60449H13.1893L9.96967 5.24648C9.67678 4.941 9.67678 4.44572 9.96967 4.14024C10.2626 3.83476 10.7374 3.83476 11.0303 4.14024L15.5301 8.83334M15.5301 9.9401L11.0303 14.6332C10.7374 14.9387 10.2626 14.9387 9.96967 14.6332M15.5301 9.9401C15.5307 9.93946 15.5313 9.93882 15.5319 9.93818C15.5314 9.93873 15.5309 9.93928 15.5303 9.93984" fill="black"/>
<mask id="mask0_624_6897" style="mask-type:alpha" maskUnits="userSpaceOnUse" x="2" y="3" width="14" height="12">
<path fill-rule="evenodd" clip-rule="evenodd" d="M9.96967 14.6332C9.67678 14.3277 9.67678 13.8324 9.96967 13.527L13.1893 10.1689H3C2.58579 10.1689 2.25 9.81873 2.25 9.38672C2.25 8.95471 2.58579 8.60449 3 8.60449H13.1893L9.96967 5.24648C9.67678 4.941 9.67678 4.44572 9.96967 4.14024C10.2626 3.83476 10.7374 3.83476 11.0303 4.14024L15.5301 8.83334M15.5301 9.9401L11.0303 14.6332C10.7374 14.9387 10.2626 14.9387 9.96967 14.6332M15.5301 9.9401C15.5307 9.93946 15.5313 9.93882 15.5319 9.93818C15.5314 9.93873 15.5309 9.93928 15.5303 9.93984" fill="white"/>
</mask>
<g mask="url(#mask0_624_6897)">
<rect width="18" height="18.7734" fill="#795DE3"/>
</g>
</svg>
