<svg width="38" height="38" viewBox="0 0 38 38" fill="none" xmlns="http://www.w3.org/2000/svg">
<rect width="38" height="38" fill="#3E33CD" fill-opacity="0.12"/>
<path fill-rule="evenodd" clip-rule="evenodd" d="M18.4165 19.9252V13.1668C18.4165 12.8447 18.6777 12.5835 18.9998 12.5835C19.322 12.5835 19.5832 12.8447 19.5832 13.1668V19.9252L20.9207 18.5877C21.1485 18.3599 21.5178 18.3599 21.7456 18.5877C21.9735 18.8155 21.9735 19.1848 21.7456 19.4126L19.4129 21.7454L19.4123 21.746M18.4165 19.9252L17.079 18.5877C16.8512 18.3599 16.4818 18.3599 16.254 18.5877C16.0262 18.8155 16.0262 19.1848 16.254 19.4126L18.5874 21.746C18.6433 21.8019 18.7077 21.8441 18.7765 21.8726C18.8453 21.9011 18.9207 21.9168 18.9998 21.9168C19.0789 21.9168 19.1543 21.9011 19.2231 21.8726C19.2904 21.8447 19.3535 21.8038 19.4085 21.7498M13.1665 21.9168V23.6668C13.1665 24.6333 13.95 25.4168 14.9165 25.4168H23.0832C24.0497 25.4168 24.8332 24.6333 24.8332 23.6668V21.9168C24.8332 21.5947 24.572 21.3335 24.2498 21.3335C23.9277 21.3335 23.6665 21.5947 23.6665 21.9168V23.6668C23.6665 23.989 23.4053 24.2502 23.0832 24.2502H14.9165C14.5943 24.2502 14.3332 23.989 14.3332 23.6668V21.9168C14.3332 21.5947 14.072 21.3335 13.7498 21.3335C13.4277 21.3335 13.1665 21.5947 13.1665 21.9168Z" fill="black"/>
<mask id="mask0_624_5814" style="mask-type:alpha" maskUnits="userSpaceOnUse" x="13" y="12" width="12" height="14">
<path fill-rule="evenodd" clip-rule="evenodd" d="M18.4165 19.9252V13.1668C18.4165 12.8447 18.6777 12.5835 18.9998 12.5835C19.322 12.5835 19.5832 12.8447 19.5832 13.1668V19.9252L20.9207 18.5877C21.1485 18.3599 21.5178 18.3599 21.7456 18.5877C21.9735 18.8155 21.9735 19.1848 21.7456 19.4126L19.4129 21.7454L19.4123 21.746M18.4165 19.9252L17.079 18.5877C16.8512 18.3599 16.4818 18.3599 16.254 18.5877C16.0262 18.8155 16.0262 19.1848 16.254 19.4126L18.5874 21.746C18.6433 21.8019 18.7077 21.8441 18.7765 21.8726C18.8453 21.9011 18.9207 21.9168 18.9998 21.9168C19.0789 21.9168 19.1543 21.9011 19.2231 21.8726C19.2904 21.8447 19.3535 21.8038 19.4085 21.7498M13.1665 21.9168V23.6668C13.1665 24.6333 13.95 25.4168 14.9165 25.4168H23.0832C24.0497 25.4168 24.8332 24.6333 24.8332 23.6668V21.9168C24.8332 21.5947 24.572 21.3335 24.2498 21.3335C23.9277 21.3335 23.6665 21.5947 23.6665 21.9168V23.6668C23.6665 23.989 23.4053 24.2502 23.0832 24.2502H14.9165C14.5943 24.2502 14.3332 23.989 14.3332 23.6668V21.9168C14.3332 21.5947 14.072 21.3335 13.7498 21.3335C13.4277 21.3335 13.1665 21.5947 13.1665 21.9168Z" fill="white"/>
</mask>
<g mask="url(#mask0_624_5814)">
<rect x="12" y="12" width="14" height="14" fill="white"/>
</g>
</svg>
