<svg width="22" height="22" viewBox="0 0 22 22" fill="none" xmlns="http://www.w3.org/2000/svg">
<path fill-rule="evenodd" clip-rule="evenodd" d="M4.58317 14.6666H3.6665C3.16024 14.6666 2.74984 14.2562 2.74984 13.7499V4.58325C2.74984 4.07699 3.16024 3.66659 3.6665 3.66659H18.3332C18.8394 3.66659 19.2498 4.07699 19.2498 4.58325V13.7499C19.2498 14.2562 18.8394 14.6666 18.3332 14.6666H17.4165C16.9102 14.6666 16.4998 15.077 16.4998 15.5833C16.4998 16.0895 16.9102 16.4999 17.4165 16.4999H18.3332C19.852 16.4999 21.0832 15.2687 21.0832 13.7499V4.58325C21.0832 3.06447 19.852 1.83325 18.3332 1.83325H3.6665C2.14772 1.83325 0.916504 3.06447 0.916504 4.58325V13.7499C0.916504 15.2687 2.14772 16.4999 3.6665 16.4999H4.58317C5.08943 16.4999 5.49984 16.0895 5.49984 15.5833C5.49984 15.077 5.08943 14.6666 4.58317 14.6666ZM11.704 13.1631L16.2874 18.6631C16.7849 19.2601 16.3604 20.1666 15.5832 20.1666H6.41651C5.63932 20.1666 5.21476 19.2601 5.71231 18.6631L10.2956 13.1631C10.6621 12.7233 11.3376 12.7233 11.704 13.1631ZM13.6261 18.3333H8.37365L10.9999 15.1818L13.6261 18.3333Z" fill="black"/>
<mask id="mask0_624_9829" style="mask-type:alpha" maskUnits="userSpaceOnUse" x="0" y="1" width="22" height="20">
<path fill-rule="evenodd" clip-rule="evenodd" d="M4.58317 14.6666H3.6665C3.16024 14.6666 2.74984 14.2562 2.74984 13.7499V4.58325C2.74984 4.07699 3.16024 3.66659 3.6665 3.66659H18.3332C18.8394 3.66659 19.2498 4.07699 19.2498 4.58325V13.7499C19.2498 14.2562 18.8394 14.6666 18.3332 14.6666H17.4165C16.9102 14.6666 16.4998 15.077 16.4998 15.5833C16.4998 16.0895 16.9102 16.4999 17.4165 16.4999H18.3332C19.852 16.4999 21.0832 15.2687 21.0832 13.7499V4.58325C21.0832 3.06447 19.852 1.83325 18.3332 1.83325H3.6665C2.14772 1.83325 0.916504 3.06447 0.916504 4.58325V13.7499C0.916504 15.2687 2.14772 16.4999 3.6665 16.4999H4.58317C5.08943 16.4999 5.49984 16.0895 5.49984 15.5833C5.49984 15.077 5.08943 14.6666 4.58317 14.6666ZM11.704 13.1631L16.2874 18.6631C16.7849 19.2601 16.3604 20.1666 15.5832 20.1666H6.41651C5.63932 20.1666 5.21476 19.2601 5.71231 18.6631L10.2956 13.1631C10.6621 12.7233 11.3376 12.7233 11.704 13.1631ZM13.6261 18.3333H8.37365L10.9999 15.1818L13.6261 18.3333Z" fill="white"/>
</mask>
<g mask="url(#mask0_624_9829)">
<rect width="22" height="22" fill="white" fill-opacity="0.74"/>
</g>
</svg>
