<svg width="38" height="38" viewBox="0 0 38 38" fill="none" xmlns="http://www.w3.org/2000/svg">
<rect width="38" height="38" fill="#3E33CD" fill-opacity="0.12"/>
<path fill-rule="evenodd" clip-rule="evenodd" d="M23.0832 13.1665H14.9165C13.95 13.1665 13.1665 13.95 13.1665 14.9165V23.0832C13.1665 24.0497 13.95 24.8332 14.9165 24.8332H23.0832C24.0497 24.8332 24.8332 24.0497 24.8332 23.0832V14.9165C24.8332 13.95 24.0497 13.1665 23.0832 13.1665ZM14.3332 14.9165C14.3332 14.5943 14.5943 14.3332 14.9165 14.3332H23.0832C23.4053 14.3332 23.6665 14.5943 23.6665 14.9165V23.0832C23.6665 23.4053 23.4053 23.6665 23.0832 23.6665H14.9165C14.5943 23.6665 14.3332 23.4053 14.3332 23.0832V14.9165ZM18.4165 19.5832V21.3332C18.4165 21.6553 18.6777 21.9165 18.9998 21.9165C19.322 21.9165 19.5832 21.6553 19.5832 21.3332V19.5832H21.3332C21.6553 19.5832 21.9165 19.322 21.9165 18.9998C21.9165 18.6777 21.6553 18.4165 21.3332 18.4165H19.5832V16.6665C19.5832 16.3443 19.322 16.0832 18.9998 16.0832C18.6777 16.0832 18.4165 16.3443 18.4165 16.6665V18.4165H16.6665C16.3443 18.4165 16.0832 18.6777 16.0832 18.9998C16.0832 19.322 16.3443 19.5832 16.6665 19.5832H18.4165Z" fill="black"/>
<mask id="mask0_624_5826" style="mask-type:alpha" maskUnits="userSpaceOnUse" x="13" y="13" width="12" height="12">
<path fill-rule="evenodd" clip-rule="evenodd" d="M23.0832 13.1665H14.9165C13.95 13.1665 13.1665 13.95 13.1665 14.9165V23.0832C13.1665 24.0497 13.95 24.8332 14.9165 24.8332H23.0832C24.0497 24.8332 24.8332 24.0497 24.8332 23.0832V14.9165C24.8332 13.95 24.0497 13.1665 23.0832 13.1665ZM14.3332 14.9165C14.3332 14.5943 14.5943 14.3332 14.9165 14.3332H23.0832C23.4053 14.3332 23.6665 14.5943 23.6665 14.9165V23.0832C23.6665 23.4053 23.4053 23.6665 23.0832 23.6665H14.9165C14.5943 23.6665 14.3332 23.4053 14.3332 23.0832V14.9165ZM18.4165 19.5832V21.3332C18.4165 21.6553 18.6777 21.9165 18.9998 21.9165C19.322 21.9165 19.5832 21.6553 19.5832 21.3332V19.5832H21.3332C21.6553 19.5832 21.9165 19.322 21.9165 18.9998C21.9165 18.6777 21.6553 18.4165 21.3332 18.4165H19.5832V16.6665C19.5832 16.3443 19.322 16.0832 18.9998 16.0832C18.6777 16.0832 18.4165 16.3443 18.4165 16.6665V18.4165H16.6665C16.3443 18.4165 16.0832 18.6777 16.0832 18.9998C16.0832 19.322 16.3443 19.5832 16.6665 19.5832H18.4165Z" fill="white"/>
</mask>
<g mask="url(#mask0_624_5826)">
<rect x="12" y="12" width="14" height="14" fill="white"/>
</g>
</svg>
