<svg width="22" height="22" viewBox="0 0 22 22" fill="none" xmlns="http://www.w3.org/2000/svg">
<path fill-rule="evenodd" clip-rule="evenodd" d="M11.0028 0.916753L10.9998 0.916748C5.43097 0.916748 0.916504 5.43121 0.916504 11.0001C0.916504 16.569 5.43097 21.0834 10.9998 21.0834C16.5687 21.0834 21.0832 16.569 21.0832 11.0001C21.0832 5.43218 16.5703 0.91833 11.0028 0.916753ZM19.1995 10.0834C18.8208 6.65795 16.345 3.86457 13.0843 3.01569C14.4785 5.11229 15.3252 7.5384 15.5349 10.0834H19.1995ZM15.5373 11.9167H19.1995C18.8208 15.3421 16.3451 18.1354 13.0846 18.9844C14.484 16.881 15.3318 14.4497 15.5373 11.9167ZM13.697 10.0834C13.4668 7.59633 12.5303 5.22683 10.9998 3.25495C9.46348 5.23391 8.52579 7.61084 8.30003 10.0834H13.697ZM8.30261 11.9167H13.6996C13.4738 14.3893 12.5362 16.7662 10.9998 18.7452C9.46929 16.7733 8.53288 14.4038 8.30261 11.9167ZM6.46244 10.0834C6.66796 7.55049 7.5157 5.11913 8.91509 3.01575C5.65459 3.86471 3.17884 6.65804 2.80019 10.0834H6.46244ZM2.80019 11.9167H6.46484C6.6745 14.4618 7.52119 16.8879 8.91538 18.9845C5.65473 18.1356 3.17885 15.3422 2.80019 11.9167Z" fill="black"/>
<mask id="mask0_624_9004" style="mask-type:alpha" maskUnits="userSpaceOnUse" x="0" y="0" width="22" height="22">
<path fill-rule="evenodd" clip-rule="evenodd" d="M11.0028 0.916753L10.9998 0.916748C5.43097 0.916748 0.916504 5.43121 0.916504 11.0001C0.916504 16.569 5.43097 21.0834 10.9998 21.0834C16.5687 21.0834 21.0832 16.569 21.0832 11.0001C21.0832 5.43218 16.5703 0.91833 11.0028 0.916753ZM19.1995 10.0834C18.8208 6.65795 16.345 3.86457 13.0843 3.01569C14.4785 5.11229 15.3252 7.5384 15.5349 10.0834H19.1995ZM15.5373 11.9167H19.1995C18.8208 15.3421 16.3451 18.1354 13.0846 18.9844C14.484 16.881 15.3318 14.4497 15.5373 11.9167ZM13.697 10.0834C13.4668 7.59633 12.5303 5.22683 10.9998 3.25495C9.46348 5.23391 8.52579 7.61084 8.30003 10.0834H13.697ZM8.30261 11.9167H13.6996C13.4738 14.3893 12.5362 16.7662 10.9998 18.7452C9.46929 16.7733 8.53288 14.4038 8.30261 11.9167ZM6.46244 10.0834C6.66796 7.55049 7.5157 5.11913 8.91509 3.01575C5.65459 3.86471 3.17884 6.65804 2.80019 10.0834H6.46244ZM2.80019 11.9167H6.46484C6.6745 14.4618 7.52119 16.8879 8.91538 18.9845C5.65473 18.1356 3.17885 15.3422 2.80019 11.9167Z" fill="white"/>
</mask>
<g mask="url(#mask0_624_9004)">
<rect width="22" height="22" fill="white" fill-opacity="0.74"/>
</g>
</svg>
