<svg width="22" height="22" viewBox="0 0 22 22" fill="none" xmlns="http://www.w3.org/2000/svg">
<path fill-rule="evenodd" clip-rule="evenodd" d="M4.58317 14.6663H3.6665C3.16024 14.6663 2.74984 14.2559 2.74984 13.7497V4.58301C2.74984 4.07675 3.16024 3.66634 3.6665 3.66634H18.3332C18.8394 3.66634 19.2498 4.07675 19.2498 4.58301V13.7497C19.2498 14.2559 18.8394 14.6663 18.3332 14.6663H17.4165C16.9102 14.6663 16.4998 15.0767 16.4998 15.583C16.4998 16.0893 16.9102 16.4997 17.4165 16.4997H18.3332C19.852 16.4997 21.0832 15.2685 21.0832 13.7497V4.58301C21.0832 3.06422 19.852 1.83301 18.3332 1.83301H3.6665C2.14772 1.83301 0.916504 3.06422 0.916504 4.58301V13.7497C0.916504 15.2685 2.14772 16.4997 3.6665 16.4997H4.58317C5.08943 16.4997 5.49984 16.0893 5.49984 15.583C5.49984 15.0767 5.08943 14.6663 4.58317 14.6663ZM11.704 13.1628L16.2874 18.6628C16.7849 19.2599 16.3604 20.1663 15.5832 20.1663H6.41651C5.63932 20.1663 5.21476 19.2599 5.71231 18.6628L10.2956 13.1628C10.6621 12.7231 11.3376 12.7231 11.704 13.1628ZM13.6261 18.333H8.37365L10.9999 15.1816L13.6261 18.333Z" fill="black"/>
<mask id="mask0_624_7470" style="mask-type:alpha" maskUnits="userSpaceOnUse" x="0" y="1" width="22" height="20">
<path fill-rule="evenodd" clip-rule="evenodd" d="M4.58317 14.6663H3.6665C3.16024 14.6663 2.74984 14.2559 2.74984 13.7497V4.58301C2.74984 4.07675 3.16024 3.66634 3.6665 3.66634H18.3332C18.8394 3.66634 19.2498 4.07675 19.2498 4.58301V13.7497C19.2498 14.2559 18.8394 14.6663 18.3332 14.6663H17.4165C16.9102 14.6663 16.4998 15.0767 16.4998 15.583C16.4998 16.0893 16.9102 16.4997 17.4165 16.4997H18.3332C19.852 16.4997 21.0832 15.2685 21.0832 13.7497V4.58301C21.0832 3.06422 19.852 1.83301 18.3332 1.83301H3.6665C2.14772 1.83301 0.916504 3.06422 0.916504 4.58301V13.7497C0.916504 15.2685 2.14772 16.4997 3.6665 16.4997H4.58317C5.08943 16.4997 5.49984 16.0893 5.49984 15.583C5.49984 15.0767 5.08943 14.6663 4.58317 14.6663ZM11.704 13.1628L16.2874 18.6628C16.7849 19.2599 16.3604 20.1663 15.5832 20.1663H6.41651C5.63932 20.1663 5.21476 19.2599 5.71231 18.6628L10.2956 13.1628C10.6621 12.7231 11.3376 12.7231 11.704 13.1628ZM13.6261 18.333H8.37365L10.9999 15.1816L13.6261 18.333Z" fill="white"/>
</mask>
<g mask="url(#mask0_624_7470)">
<rect width="22" height="22" fill="#795DE3"/>
</g>
</svg>
