<svg width="14" height="14" viewBox="0 0 14 14" fill="none" xmlns="http://www.w3.org/2000/svg">
<path fill-rule="evenodd" clip-rule="evenodd" d="M7.00016 13.4168C3.45634 13.4168 0.583496 10.544 0.583496 7.00016C0.583496 3.45634 3.45634 0.583496 7.00016 0.583496C10.544 0.583496 13.4168 3.45634 13.4168 7.00016C13.4168 10.544 10.544 13.4168 7.00016 13.4168ZM7.00016 12.2502C9.89966 12.2502 12.2502 9.89966 12.2502 7.00016C12.2502 4.10067 9.89966 1.75016 7.00016 1.75016C4.10067 1.75016 1.75016 4.10067 1.75016 7.00016C1.75016 9.89966 4.10067 12.2502 7.00016 12.2502ZM9.65707 6.5148L6.15707 4.18147C5.76941 3.92303 5.25016 4.20092 5.25016 4.66683V9.3335C5.25016 9.7994 5.76941 10.0773 6.15707 9.81886L9.65707 7.48552C10.0034 7.25463 10.0034 6.7457 9.65707 6.5148Z" fill="black"/>
<mask id="mask0_624_5770" style="mask-type:alpha" maskUnits="userSpaceOnUse" x="0" y="0" width="14" height="14">
<path fill-rule="evenodd" clip-rule="evenodd" d="M7.00016 13.4168C3.45634 13.4168 0.583496 10.544 0.583496 7.00016C0.583496 3.45634 3.45634 0.583496 7.00016 0.583496C10.544 0.583496 13.4168 3.45634 13.4168 7.00016C13.4168 10.544 10.544 13.4168 7.00016 13.4168ZM7.00016 12.2502C9.89966 12.2502 12.2502 9.89966 12.2502 7.00016C12.2502 4.10067 9.89966 1.75016 7.00016 1.75016C4.10067 1.75016 1.75016 4.10067 1.75016 7.00016C1.75016 9.89966 4.10067 12.2502 7.00016 12.2502ZM9.65707 6.5148L6.15707 4.18147C5.76941 3.92303 5.25016 4.20092 5.25016 4.66683V9.3335C5.25016 9.7994 5.76941 10.0773 6.15707 9.81886L9.65707 7.48552C10.0034 7.25463 10.0034 6.7457 9.65707 6.5148Z" fill="white"/>
</mask>
<g mask="url(#mask0_624_5770)">
<rect width="14" height="14" fill="white"/>
</g>
</svg>
