<svg width="18" height="18" viewBox="0 0 18 18" fill="none" xmlns="http://www.w3.org/2000/svg">
<path fill-rule="evenodd" clip-rule="evenodd" d="M7.5 2.25H4.5C4.08579 2.25 3.75 2.58579 3.75 3V15C3.75 15.4142 4.08579 15.75 4.5 15.75H7.5C7.91421 15.75 8.25 15.4142 8.25 15V3C8.25 2.58579 7.91421 2.25 7.5 2.25ZM5.25 14.25V3.75H6.75V14.25H5.25ZM10.5 2.25H13.5C13.9142 2.25 14.25 2.58579 14.25 3V15C14.25 15.4142 13.9142 15.75 13.5 15.75H10.5C10.0858 15.75 9.75 15.4142 9.75 15V3C9.75 2.58579 10.0858 2.25 10.5 2.25ZM11.25 14.25V3.75H12.75V14.25H11.25Z" fill="black"/>
<mask id="mask0_624_7287" style="mask-type:alpha" maskUnits="userSpaceOnUse" x="3" y="2" width="12" height="14">
<path fill-rule="evenodd" clip-rule="evenodd" d="M7.5 2.25H4.5C4.08579 2.25 3.75 2.58579 3.75 3V15C3.75 15.4142 4.08579 15.75 4.5 15.75H7.5C7.91421 15.75 8.25 15.4142 8.25 15V3C8.25 2.58579 7.91421 2.25 7.5 2.25ZM5.25 14.25V3.75H6.75V14.25H5.25ZM10.5 2.25H13.5C13.9142 2.25 14.25 2.58579 14.25 3V15C14.25 15.4142 13.9142 15.75 13.5 15.75H10.5C10.0858 15.75 9.75 15.4142 9.75 15V3C9.75 2.58579 10.0858 2.25 10.5 2.25ZM11.25 14.25V3.75H12.75V14.25H11.25Z" fill="white"/>
</mask>
<g mask="url(#mask0_624_7287)">
<rect width="18" height="18" fill="white" fill-opacity="0.74"/>
</g>
</svg>
