<svg width="6" height="6" viewBox="0 0 6 6" fill="none" xmlns="http://www.w3.org/2000/svg">
<path d="M2.06171 1.83662L2.7761 0.389344C2.8678 0.203552 3.13274 0.203552 3.22445 0.389344L3.93884 1.83662L5.53643 2.07013C5.74141 2.10009 5.8231 2.35205 5.67471 2.49659L4.5189 3.62234L4.79167 5.21274C4.8267 5.41698 4.61232 5.57272 4.42891 5.47627L3.00027 4.72496L1.57163 5.47627C1.38823 5.57272 1.17384 5.41698 1.20887 5.21274L1.48164 3.62234L0.325839 2.49659C0.177441 2.35205 0.259136 2.10009 0.464115 2.07013L2.06171 1.83662Z" fill="black"/>
<mask id="mask0_624_5361" style="mask-type:alpha" maskUnits="userSpaceOnUse" x="0" y="0" width="6" height="6">
<path d="M2.06171 1.83662L2.7761 0.389344C2.8678 0.203552 3.13274 0.203552 3.22445 0.389344L3.93884 1.83662L5.53643 2.07013C5.74141 2.10009 5.8231 2.35205 5.67471 2.49659L4.5189 3.62234L4.79167 5.21274C4.8267 5.41698 4.61232 5.57272 4.42891 5.47627L3.00027 4.72496L1.57163 5.47627C1.38823 5.57272 1.17384 5.41698 1.20887 5.21274L1.48164 3.62234L0.325839 2.49659C0.177441 2.35205 0.259136 2.10009 0.464115 2.07013L2.06171 1.83662Z" fill="white"/>
</mask>
<g mask="url(#mask0_624_5361)">
<rect width="6" height="6" fill="#795DE3"/>
</g>
</svg>
