<svg width="38" height="38" viewBox="0 0 38 38" fill="none" xmlns="http://www.w3.org/2000/svg">
<rect width="38" height="38" fill="#3E33CD" fill-opacity="0.12"/>
<path fill-rule="evenodd" clip-rule="evenodd" d="M20.842 16.5588C21.2649 16.9857 21.8515 17.2502 22.4998 17.2502C23.7885 17.2502 24.8332 16.2055 24.8332 14.9168C24.8332 13.6282 23.7885 12.5835 22.4998 12.5835C21.2112 12.5835 20.1665 13.6282 20.1665 14.9168C20.1665 15.1368 20.1969 15.3496 20.2538 15.5513L17.1576 17.3582C16.7348 16.9313 16.1482 16.6668 15.4998 16.6668C14.2112 16.6668 13.1665 17.7115 13.1665 19.0002C13.1665 20.2888 14.2112 21.3335 15.4998 21.3335C16.1483 21.3335 16.735 21.069 17.1579 20.6419L20.2545 22.4464C20.1972 22.6489 20.1665 22.8626 20.1665 23.0835C20.1665 24.3722 21.2112 25.4168 22.4998 25.4168C23.7885 25.4168 24.8332 24.3722 24.8332 23.0835C24.8332 21.7948 23.7885 20.7502 22.4998 20.7502C21.8525 20.7502 21.2667 21.0138 20.8439 21.4396L17.746 19.6343C17.8028 19.4327 17.8332 19.22 17.8332 19.0002C17.8332 18.7802 17.8027 18.5674 17.7459 18.3657L20.842 16.5588ZM21.5083 15.532C21.7142 15.8631 22.0813 16.0835 22.4998 16.0835C23.1442 16.0835 23.6665 15.5612 23.6665 14.9168C23.6665 14.2725 23.1442 13.7502 22.4998 13.7502C21.8555 13.7502 21.3332 14.2725 21.3332 14.9168C21.3332 15.1194 21.3848 15.31 21.4757 15.476C21.4816 15.485 21.4873 15.4942 21.4928 15.5036C21.4983 15.513 21.5035 15.5225 21.5083 15.532ZM16.4913 18.385C16.4962 18.3945 16.5014 18.404 16.5069 18.4133C16.5124 18.4228 16.5181 18.432 16.524 18.441C16.6149 18.6071 16.6665 18.7976 16.6665 19.0002C16.6665 19.2027 16.6149 19.3933 16.524 19.5593C16.518 19.5684 16.5122 19.5778 16.5067 19.5873C16.5013 19.5966 16.4962 19.6059 16.4913 19.6153C16.2855 19.9464 15.9184 20.1668 15.4998 20.1668C14.8555 20.1668 14.3332 19.6445 14.3332 19.0002C14.3332 18.3558 14.8555 17.8335 15.4998 17.8335C15.9184 17.8335 16.2854 18.0539 16.4913 18.385ZM21.4988 22.4964C21.4866 22.5174 21.4731 22.5375 21.4587 22.5564C21.3784 22.7147 21.3332 22.8938 21.3332 23.0835C21.3332 23.7278 21.8555 24.2502 22.4998 24.2502C23.1442 24.2502 23.6665 23.7278 23.6665 23.0835C23.6665 22.4392 23.1442 21.9168 22.4998 21.9168C22.0957 21.9168 21.7395 22.1223 21.5302 22.4346C21.521 22.4555 21.5106 22.4761 21.4988 22.4964Z" fill="black"/>
<mask id="mask0_624_5407" style="mask-type:alpha" maskUnits="userSpaceOnUse" x="13" y="12" width="12" height="14">
<path fill-rule="evenodd" clip-rule="evenodd" d="M20.842 16.5588C21.2649 16.9857 21.8515 17.2502 22.4998 17.2502C23.7885 17.2502 24.8332 16.2055 24.8332 14.9168C24.8332 13.6282 23.7885 12.5835 22.4998 12.5835C21.2112 12.5835 20.1665 13.6282 20.1665 14.9168C20.1665 15.1368 20.1969 15.3496 20.2538 15.5513L17.1576 17.3582C16.7348 16.9313 16.1482 16.6668 15.4998 16.6668C14.2112 16.6668 13.1665 17.7115 13.1665 19.0002C13.1665 20.2888 14.2112 21.3335 15.4998 21.3335C16.1483 21.3335 16.735 21.069 17.1579 20.6419L20.2545 22.4464C20.1972 22.6489 20.1665 22.8626 20.1665 23.0835C20.1665 24.3722 21.2112 25.4168 22.4998 25.4168C23.7885 25.4168 24.8332 24.3722 24.8332 23.0835C24.8332 21.7948 23.7885 20.7502 22.4998 20.7502C21.8525 20.7502 21.2667 21.0138 20.8439 21.4396L17.746 19.6343C17.8028 19.4327 17.8332 19.22 17.8332 19.0002C17.8332 18.7802 17.8027 18.5674 17.7459 18.3657L20.842 16.5588ZM21.5083 15.532C21.7142 15.8631 22.0813 16.0835 22.4998 16.0835C23.1442 16.0835 23.6665 15.5612 23.6665 14.9168C23.6665 14.2725 23.1442 13.7502 22.4998 13.7502C21.8555 13.7502 21.3332 14.2725 21.3332 14.9168C21.3332 15.1194 21.3848 15.31 21.4757 15.476C21.4816 15.485 21.4873 15.4942 21.4928 15.5036C21.4983 15.513 21.5035 15.5225 21.5083 15.532ZM16.4913 18.385C16.4962 18.3945 16.5014 18.404 16.5069 18.4133C16.5124 18.4228 16.5181 18.432 16.524 18.441C16.6149 18.6071 16.6665 18.7976 16.6665 19.0002C16.6665 19.2027 16.6149 19.3933 16.524 19.5593C16.518 19.5684 16.5122 19.5778 16.5067 19.5873C16.5013 19.5966 16.4962 19.6059 16.4913 19.6153C16.2855 19.9464 15.9184 20.1668 15.4998 20.1668C14.8555 20.1668 14.3332 19.6445 14.3332 19.0002C14.3332 18.3558 14.8555 17.8335 15.4998 17.8335C15.9184 17.8335 16.2854 18.0539 16.4913 18.385ZM21.4988 22.4964C21.4866 22.5174 21.4731 22.5375 21.4587 22.5564C21.3784 22.7147 21.3332 22.8938 21.3332 23.0835C21.3332 23.7278 21.8555 24.2502 22.4998 24.2502C23.1442 24.2502 23.6665 23.7278 23.6665 23.0835C23.6665 22.4392 23.1442 21.9168 22.4998 21.9168C22.0957 21.9168 21.7395 22.1223 21.5302 22.4346C21.521 22.4555 21.5106 22.4761 21.4988 22.4964Z" fill="white"/>
</mask>
<g mask="url(#mask0_624_5407)">
<rect x="12" y="12" width="14" height="14" fill="white"/>
</g>
</svg>
