<svg width="36" height="36" viewBox="0 0 36 36" fill="none" xmlns="http://www.w3.org/2000/svg">
<path fill-rule="evenodd" clip-rule="evenodd" d="M18 34.5C8.8873 34.5 1.5 27.1127 1.5 18C1.5 8.8873 8.8873 1.5 18 1.5C27.1127 1.5 34.5 8.8873 34.5 18C34.5 27.1127 27.1127 34.5 18 34.5ZM18 31.5C25.4558 31.5 31.5 25.4558 31.5 18C31.5 10.5442 25.4558 4.5 18 4.5C10.5442 4.5 4.5 10.5442 4.5 18C4.5 25.4558 10.5442 31.5 18 31.5ZM24.8321 16.7519L15.8321 10.7519C14.8352 10.0874 13.5 10.802 13.5 12V24C13.5 25.198 14.8352 25.9126 15.8321 25.2481L24.8321 19.2481C25.7227 18.6543 25.7227 17.3457 24.8321 16.7519Z" fill="black"/>
<mask id="mask0_624_7860" style="mask-type:alpha" maskUnits="userSpaceOnUse" x="1" y="1" width="34" height="34">
<path fill-rule="evenodd" clip-rule="evenodd" d="M18 34.5C8.8873 34.5 1.5 27.1127 1.5 18C1.5 8.8873 8.8873 1.5 18 1.5C27.1127 1.5 34.5 8.8873 34.5 18C34.5 27.1127 27.1127 34.5 18 34.5ZM18 31.5C25.4558 31.5 31.5 25.4558 31.5 18C31.5 10.5442 25.4558 4.5 18 4.5C10.5442 4.5 4.5 10.5442 4.5 18C4.5 25.4558 10.5442 31.5 18 31.5ZM24.8321 16.7519L15.8321 10.7519C14.8352 10.0874 13.5 10.802 13.5 12V24C13.5 25.198 14.8352 25.9126 15.8321 25.2481L24.8321 19.2481C25.7227 18.6543 25.7227 17.3457 24.8321 16.7519Z" fill="white"/>
</mask>
<g mask="url(#mask0_624_7860)">
<rect width="36" height="36" fill="white"/>
</g>
</svg>
