<svg width="18" height="18" viewBox="0 0 18 18" fill="none" xmlns="http://www.w3.org/2000/svg">
<path fill-rule="evenodd" clip-rule="evenodd" d="M3.75 1.5H6C6.41421 1.5 6.75 1.83579 6.75 2.25C6.75 2.66421 6.41421 3 6 3H3.75C3.33579 3 3 3.33579 3 3.75V6C3 6.41421 2.66421 6.75 2.25 6.75C1.83579 6.75 1.5 6.41421 1.5 6V3.75C1.5 2.50736 2.50736 1.5 3.75 1.5ZM16.5 3.75V6C16.5 6.41421 16.1642 6.75 15.75 6.75C15.3358 6.75 15 6.41421 15 6V3.75C15 3.33579 14.6642 3 14.25 3H12C11.5858 3 11.25 2.66421 11.25 2.25C11.25 1.83579 11.5858 1.5 12 1.5H14.25C15.4926 1.5 16.5 2.50736 16.5 3.75ZM12 16.5H14.25C15.4926 16.5 16.5 15.4926 16.5 14.25V12C16.5 11.5858 16.1642 11.25 15.75 11.25C15.3358 11.25 15 11.5858 15 12V14.25C15 14.6642 14.6642 15 14.25 15H12C11.5858 15 11.25 15.3358 11.25 15.75C11.25 16.1642 11.5858 16.5 12 16.5ZM1.5 14.25V12C1.5 11.5858 1.83579 11.25 2.25 11.25C2.66421 11.25 3 11.5858 3 12V14.25C3 14.6642 3.33579 15 3.75 15H6C6.41421 15 6.75 15.3358 6.75 15.75C6.75 16.1642 6.41421 16.5 6 16.5H3.75C2.50736 16.5 1.5 15.4926 1.5 14.25Z" fill="black"/>
<mask id="mask0_624_7709" style="mask-type:alpha" maskUnits="userSpaceOnUse" x="1" y="1" width="16" height="16">
<path fill-rule="evenodd" clip-rule="evenodd" d="M3.75 1.5H6C6.41421 1.5 6.75 1.83579 6.75 2.25C6.75 2.66421 6.41421 3 6 3H3.75C3.33579 3 3 3.33579 3 3.75V6C3 6.41421 2.66421 6.75 2.25 6.75C1.83579 6.75 1.5 6.41421 1.5 6V3.75C1.5 2.50736 2.50736 1.5 3.75 1.5ZM16.5 3.75V6C16.5 6.41421 16.1642 6.75 15.75 6.75C15.3358 6.75 15 6.41421 15 6V3.75C15 3.33579 14.6642 3 14.25 3H12C11.5858 3 11.25 2.66421 11.25 2.25C11.25 1.83579 11.5858 1.5 12 1.5H14.25C15.4926 1.5 16.5 2.50736 16.5 3.75ZM12 16.5H14.25C15.4926 16.5 16.5 15.4926 16.5 14.25V12C16.5 11.5858 16.1642 11.25 15.75 11.25C15.3358 11.25 15 11.5858 15 12V14.25C15 14.6642 14.6642 15 14.25 15H12C11.5858 15 11.25 15.3358 11.25 15.75C11.25 16.1642 11.5858 16.5 12 16.5ZM1.5 14.25V12C1.5 11.5858 1.83579 11.25 2.25 11.25C2.66421 11.25 3 11.5858 3 12V14.25C3 14.6642 3.33579 15 3.75 15H6C6.41421 15 6.75 15.3358 6.75 15.75C6.75 16.1642 6.41421 16.5 6 16.5H3.75C2.50736 16.5 1.5 15.4926 1.5 14.25Z" fill="white"/>
</mask>
<g mask="url(#mask0_624_7709)">
<rect width="18" height="18" fill="white" fill-opacity="0.74"/>
</g>
</svg>
