<svg width="22" height="22" viewBox="0 0 22 22" fill="none" xmlns="http://www.w3.org/2000/svg">
<path fill-rule="evenodd" clip-rule="evenodd" d="M4.58317 14.6668H3.6665C3.16024 14.6668 2.74984 14.2564 2.74984 13.7502V4.5835C2.74984 4.07723 3.16024 3.66683 3.6665 3.66683H18.3332C18.8394 3.66683 19.2498 4.07723 19.2498 4.5835V13.7502C19.2498 14.2564 18.8394 14.6668 18.3332 14.6668H17.4165C16.9102 14.6668 16.4998 15.0772 16.4998 15.5835C16.4998 16.0898 16.9102 16.5002 17.4165 16.5002H18.3332C19.852 16.5002 21.0832 15.2689 21.0832 13.7502V4.5835C21.0832 3.06471 19.852 1.8335 18.3332 1.8335H3.6665C2.14772 1.8335 0.916504 3.06471 0.916504 4.5835V13.7502C0.916504 15.2689 2.14772 16.5002 3.6665 16.5002H4.58317C5.08943 16.5002 5.49984 16.0898 5.49984 15.5835C5.49984 15.0772 5.08943 14.6668 4.58317 14.6668ZM11.704 13.1633L16.2874 18.6633C16.7849 19.2604 16.3604 20.1668 15.5832 20.1668H6.41651C5.63932 20.1668 5.21476 19.2604 5.71231 18.6633L10.2956 13.1633C10.6621 12.7236 11.3376 12.7236 11.704 13.1633ZM13.6261 18.3335H8.37365L10.9999 15.182L13.6261 18.3335Z" fill="black"/>
<mask id="mask0_624_5949" style="mask-type:alpha" maskUnits="userSpaceOnUse" x="0" y="1" width="22" height="20">
<path fill-rule="evenodd" clip-rule="evenodd" d="M4.58317 14.6668H3.6665C3.16024 14.6668 2.74984 14.2564 2.74984 13.7502V4.5835C2.74984 4.07723 3.16024 3.66683 3.6665 3.66683H18.3332C18.8394 3.66683 19.2498 4.07723 19.2498 4.5835V13.7502C19.2498 14.2564 18.8394 14.6668 18.3332 14.6668H17.4165C16.9102 14.6668 16.4998 15.0772 16.4998 15.5835C16.4998 16.0898 16.9102 16.5002 17.4165 16.5002H18.3332C19.852 16.5002 21.0832 15.2689 21.0832 13.7502V4.5835C21.0832 3.06471 19.852 1.8335 18.3332 1.8335H3.6665C2.14772 1.8335 0.916504 3.06471 0.916504 4.5835V13.7502C0.916504 15.2689 2.14772 16.5002 3.6665 16.5002H4.58317C5.08943 16.5002 5.49984 16.0898 5.49984 15.5835C5.49984 15.0772 5.08943 14.6668 4.58317 14.6668ZM11.704 13.1633L16.2874 18.6633C16.7849 19.2604 16.3604 20.1668 15.5832 20.1668H6.41651C5.63932 20.1668 5.21476 19.2604 5.71231 18.6633L10.2956 13.1633C10.6621 12.7236 11.3376 12.7236 11.704 13.1633ZM13.6261 18.3335H8.37365L10.9999 15.182L13.6261 18.3335Z" fill="white"/>
</mask>
<g mask="url(#mask0_624_5949)">
<rect width="22" height="22" fill="white" fill-opacity="0.74"/>
</g>
</svg>
