<svg width="18" height="18" viewBox="0 0 18 18" fill="none" xmlns="http://www.w3.org/2000/svg">
<path fill-rule="evenodd" clip-rule="evenodd" d="M15.6225 6.75C15.4623 6.74936 15.3132 6.6678 15.2241 6.53638C15.2134 6.48525 15.1974 6.43523 15.1761 6.38718C15.0957 6.20485 15.1343 5.99191 15.2736 5.84945L15.3128 5.81033C15.735 5.3886 15.9724 4.81592 15.9724 4.21875C15.9724 3.62158 15.735 3.0489 15.3125 2.62687C14.8911 2.20497 14.3184 1.96757 13.7213 1.96757C13.1241 1.96757 12.5514 2.20497 12.1294 2.62747L12.0847 2.67217C11.9481 2.80571 11.7351 2.84432 11.5528 2.76385C11.3669 2.6841 11.2508 2.50881 11.25 2.31451L11.25 2.25C11.25 1.00736 10.2426 0 9 0C7.75736 0 6.75 1.00736 6.75 2.25V2.3775C6.74936 2.53775 6.6678 2.68675 6.53638 2.7759C6.48525 2.7866 6.43523 2.80264 6.38718 2.82385C6.20485 2.90432 5.99191 2.86571 5.84945 2.72635L5.81033 2.68717C5.3886 2.26497 4.81592 2.02757 4.21875 2.02757C3.62158 2.02757 3.0489 2.26497 2.62687 2.68747C2.20497 3.1089 1.96757 3.68158 1.96757 4.27875C1.96757 4.87592 2.20497 5.4486 2.62747 5.87063L2.67217 5.91533C2.80571 6.05191 2.84432 6.26485 2.76385 6.44718C2.677 6.67899 2.50008 6.80552 2.25 6.81C1.00736 6.81 0 7.81736 0 9.06C0 10.3026 1.00736 11.31 2.25 11.31H2.3775C2.56881 11.3108 2.7441 11.4269 2.82065 11.6054C2.90432 11.7951 2.86571 12.0081 2.72635 12.1506L2.68717 12.1897C2.26497 12.6114 2.02757 13.1841 2.02757 13.7812C2.02757 14.3784 2.26497 14.9511 2.68747 15.3731C3.1089 15.795 3.68158 16.0324 4.27875 16.0324C4.87592 16.0324 5.4486 15.795 5.87063 15.3725L5.91533 15.3278C6.05191 15.1943 6.26485 15.1557 6.44718 15.2361C6.67899 15.323 6.80552 15.4999 6.81 15.75C6.81 16.9926 7.81736 18 9.06 18C10.3026 18 11.31 16.9926 11.31 15.75V15.6225C11.3108 15.4312 11.4269 15.2559 11.6054 15.1794C11.7951 15.0957 12.0081 15.1343 12.1506 15.2736L12.1897 15.3128C12.6114 15.735 13.1841 15.9724 13.7812 15.9724C14.3784 15.9724 14.9511 15.735 15.3731 15.3125C15.795 14.8911 16.0324 14.3184 16.0324 13.7213C16.0324 13.1241 15.795 12.5514 15.3725 12.1294L15.3278 12.0847C15.1943 11.9481 15.1557 11.7351 15.2394 11.5454C15.3159 11.3669 15.4912 11.2508 15.6855 11.25L15.75 11.25C16.9926 11.25 18 10.2426 18 9C18 7.75736 16.9926 6.75 15.75 6.75H15.6225ZM4.79467 3.79283C5.34347 4.32972 6.13854 4.50213 6.84734 4.25366C6.9154 4.24475 6.98207 4.22652 7.04545 4.19936C7.77356 3.8873 8.24683 3.17265 8.24999 2.38049L8.25 2.25C8.25 1.83579 8.58579 1.5 9 1.5C9.41421 1.5 9.75 1.83579 9.75 2.25V2.3175C9.75317 3.11265 10.2264 3.8273 10.9546 4.13935C11.6905 4.4642 12.5586 4.30679 13.1394 3.73865L13.1903 3.68783C13.3313 3.5467 13.5222 3.46757 13.7213 3.46757C13.9203 3.46757 14.1112 3.5467 14.2519 3.68753C14.3933 3.8288 14.4724 4.01969 14.4724 4.21875C14.4724 4.41781 14.3933 4.6087 14.2525 4.74937L14.2072 4.79467C13.6703 5.34347 13.4979 6.13854 13.7463 6.84734C13.7553 6.9154 13.7735 6.98207 13.8006 7.04545C14.1127 7.77356 14.8273 8.24683 15.6195 8.24999L15.75 8.25C16.1642 8.25 16.5 8.58579 16.5 9C16.5 9.41421 16.1642 9.75 15.75 9.75H15.6825C14.8873 9.75317 14.1727 10.2264 13.8639 10.9472C13.5358 11.6905 13.6932 12.5586 14.2614 13.1394L14.3122 13.1903C14.4533 13.3313 14.5324 13.5222 14.5324 13.7213C14.5324 13.9203 14.4533 14.1112 14.3125 14.2519C14.1712 14.3933 13.9803 14.4724 13.7812 14.4724C13.5822 14.4724 13.3913 14.3933 13.2506 14.2525L13.2053 14.2072C12.6186 13.6332 11.7505 13.4758 11.0072 13.8039C10.2864 14.1127 9.81316 14.8273 9.81001 15.6195L9.81 15.75C9.81 16.1642 9.47421 16.5 9.06 16.5C8.64579 16.5 8.31 16.1642 8.31 15.75V15.6825C8.29071 14.8491 7.77482 14.1278 7.00889 13.8461C6.30951 13.5358 5.44137 13.6932 4.86055 14.2614L4.80967 14.3122C4.6687 14.4533 4.47781 14.5324 4.27875 14.5324C4.07969 14.5324 3.8888 14.4533 3.74813 14.3125C3.6067 14.1712 3.52757 13.9803 3.52757 13.7812C3.52757 13.5822 3.6067 13.3913 3.74753 13.2506L3.79283 13.2053C4.36679 12.6186 4.5242 11.7505 4.19615 11.0072C3.8873 10.2864 3.17265 9.81316 2.38049 9.81001L2.25 9.81C1.83579 9.81 1.5 9.47421 1.5 9.06C1.5 8.64579 1.83579 8.31 2.25 8.31H2.3175C3.15091 8.29071 3.8722 7.77482 4.1539 7.00889C4.4642 6.30951 4.30679 5.44137 3.73865 4.86055L3.68783 4.80967C3.5467 4.6687 3.46757 4.47781 3.46757 4.27875C3.46757 4.07969 3.5467 3.8888 3.68753 3.74813C3.8288 3.6067 4.01969 3.52757 4.21875 3.52757C4.41781 3.52757 4.6087 3.6067 4.74937 3.74753L4.79467 3.79283ZM9 12C7.34315 12 6 10.6569 6 9C6 7.34315 7.34315 6 9 6C10.6569 6 12 7.34315 12 9C12 10.6569 10.6569 12 9 12ZM10.5 9C10.5 9.82843 9.82843 10.5 9 10.5C8.17157 10.5 7.5 9.82843 7.5 9C7.5 8.17157 8.17157 7.5 9 7.5C9.82843 7.5 10.5 8.17157 10.5 9Z" fill="black"/>
<mask id="mask0_624_7693" style="mask-type:alpha" maskUnits="userSpaceOnUse" x="0" y="0" width="18" height="18">
<path fill-rule="evenodd" clip-rule="evenodd" d="M15.6225 6.75C15.4623 6.74936 15.3132 6.6678 15.2241 6.53638C15.2134 6.48525 15.1974 6.43523 15.1761 6.38718C15.0957 6.20485 15.1343 5.99191 15.2736 5.84945L15.3128 5.81033C15.735 5.3886 15.9724 4.81592 15.9724 4.21875C15.9724 3.62158 15.735 3.0489 15.3125 2.62687C14.8911 2.20497 14.3184 1.96757 13.7213 1.96757C13.1241 1.96757 12.5514 2.20497 12.1294 2.62747L12.0847 2.67217C11.9481 2.80571 11.7351 2.84432 11.5528 2.76385C11.3669 2.6841 11.2508 2.50881 11.25 2.31451L11.25 2.25C11.25 1.00736 10.2426 0 9 0C7.75736 0 6.75 1.00736 6.75 2.25V2.3775C6.74936 2.53775 6.6678 2.68675 6.53638 2.7759C6.48525 2.7866 6.43523 2.80264 6.38718 2.82385C6.20485 2.90432 5.99191 2.86571 5.84945 2.72635L5.81033 2.68717C5.3886 2.26497 4.81592 2.02757 4.21875 2.02757C3.62158 2.02757 3.0489 2.26497 2.62687 2.68747C2.20497 3.1089 1.96757 3.68158 1.96757 4.27875C1.96757 4.87592 2.20497 5.4486 2.62747 5.87063L2.67217 5.91533C2.80571 6.05191 2.84432 6.26485 2.76385 6.44718C2.677 6.67899 2.50008 6.80552 2.25 6.81C1.00736 6.81 0 7.81736 0 9.06C0 10.3026 1.00736 11.31 2.25 11.31H2.3775C2.56881 11.3108 2.7441 11.4269 2.82065 11.6054C2.90432 11.7951 2.86571 12.0081 2.72635 12.1506L2.68717 12.1897C2.26497 12.6114 2.02757 13.1841 2.02757 13.7812C2.02757 14.3784 2.26497 14.9511 2.68747 15.3731C3.1089 15.795 3.68158 16.0324 4.27875 16.0324C4.87592 16.0324 5.4486 15.795 5.87063 15.3725L5.91533 15.3278C6.05191 15.1943 6.26485 15.1557 6.44718 15.2361C6.67899 15.323 6.80552 15.4999 6.81 15.75C6.81 16.9926 7.81736 18 9.06 18C10.3026 18 11.31 16.9926 11.31 15.75V15.6225C11.3108 15.4312 11.4269 15.2559 11.6054 15.1794C11.7951 15.0957 12.0081 15.1343 12.1506 15.2736L12.1897 15.3128C12.6114 15.735 13.1841 15.9724 13.7812 15.9724C14.3784 15.9724 14.9511 15.735 15.3731 15.3125C15.795 14.8911 16.0324 14.3184 16.0324 13.7213C16.0324 13.1241 15.795 12.5514 15.3725 12.1294L15.3278 12.0847C15.1943 11.9481 15.1557 11.7351 15.2394 11.5454C15.3159 11.3669 15.4912 11.2508 15.6855 11.25L15.75 11.25C16.9926 11.25 18 10.2426 18 9C18 7.75736 16.9926 6.75 15.75 6.75H15.6225ZM4.79467 3.79283C5.34347 4.32972 6.13854 4.50213 6.84734 4.25366C6.9154 4.24475 6.98207 4.22652 7.04545 4.19936C7.77356 3.8873 8.24683 3.17265 8.24999 2.38049L8.25 2.25C8.25 1.83579 8.58579 1.5 9 1.5C9.41421 1.5 9.75 1.83579 9.75 2.25V2.3175C9.75317 3.11265 10.2264 3.8273 10.9546 4.13935C11.6905 4.4642 12.5586 4.30679 13.1394 3.73865L13.1903 3.68783C13.3313 3.5467 13.5222 3.46757 13.7213 3.46757C13.9203 3.46757 14.1112 3.5467 14.2519 3.68753C14.3933 3.8288 14.4724 4.01969 14.4724 4.21875C14.4724 4.41781 14.3933 4.6087 14.2525 4.74937L14.2072 4.79467C13.6703 5.34347 13.4979 6.13854 13.7463 6.84734C13.7553 6.9154 13.7735 6.98207 13.8006 7.04545C14.1127 7.77356 14.8273 8.24683 15.6195 8.24999L15.75 8.25C16.1642 8.25 16.5 8.58579 16.5 9C16.5 9.41421 16.1642 9.75 15.75 9.75H15.6825C14.8873 9.75317 14.1727 10.2264 13.8639 10.9472C13.5358 11.6905 13.6932 12.5586 14.2614 13.1394L14.3122 13.1903C14.4533 13.3313 14.5324 13.5222 14.5324 13.7213C14.5324 13.9203 14.4533 14.1112 14.3125 14.2519C14.1712 14.3933 13.9803 14.4724 13.7812 14.4724C13.5822 14.4724 13.3913 14.3933 13.2506 14.2525L13.2053 14.2072C12.6186 13.6332 11.7505 13.4758 11.0072 13.8039C10.2864 14.1127 9.81316 14.8273 9.81001 15.6195L9.81 15.75C9.81 16.1642 9.47421 16.5 9.06 16.5C8.64579 16.5 8.31 16.1642 8.31 15.75V15.6825C8.29071 14.8491 7.77482 14.1278 7.00889 13.8461C6.30951 13.5358 5.44137 13.6932 4.86055 14.2614L4.80967 14.3122C4.6687 14.4533 4.47781 14.5324 4.27875 14.5324C4.07969 14.5324 3.8888 14.4533 3.74813 14.3125C3.6067 14.1712 3.52757 13.9803 3.52757 13.7812C3.52757 13.5822 3.6067 13.3913 3.74753 13.2506L3.79283 13.2053C4.36679 12.6186 4.5242 11.7505 4.19615 11.0072C3.8873 10.2864 3.17265 9.81316 2.38049 9.81001L2.25 9.81C1.83579 9.81 1.5 9.47421 1.5 9.06C1.5 8.64579 1.83579 8.31 2.25 8.31H2.3175C3.15091 8.29071 3.8722 7.77482 4.1539 7.00889C4.4642 6.30951 4.30679 5.44137 3.73865 4.86055L3.68783 4.80967C3.5467 4.6687 3.46757 4.47781 3.46757 4.27875C3.46757 4.07969 3.5467 3.8888 3.68753 3.74813C3.8288 3.6067 4.01969 3.52757 4.21875 3.52757C4.41781 3.52757 4.6087 3.6067 4.74937 3.74753L4.79467 3.79283ZM9 12C7.34315 12 6 10.6569 6 9C6 7.34315 7.34315 6 9 6C10.6569 6 12 7.34315 12 9C12 10.6569 10.6569 12 9 12ZM10.5 9C10.5 9.82843 9.82843 10.5 9 10.5C8.17157 10.5 7.5 9.82843 7.5 9C7.5 8.17157 8.17157 7.5 9 7.5C9.82843 7.5 10.5 8.17157 10.5 9Z" fill="white"/>
</mask>
<g mask="url(#mask0_624_7693)">
<rect width="18" height="18" fill="white" fill-opacity="0.74"/>
</g>
</svg>
